<svg xmlns="http://www.w3.org/2000/svg" xmlns:xlink="http://www.w3.org/1999/xlink" width="140" zoomAndPan="magnify" viewBox="0 0 104.88 104.999996" height="120" preserveAspectRatio="xMidYMid meet" version="1.0"><defs><g/><clipPath id="7ac0fe3bf2"><path d="M 51 2 L 104.761719 2 L 104.761719 61 L 51 61 Z M 51 2 " clip-rule="nonzero"/></clipPath><clipPath id="32451ec5cd"><path d="M 0 44 L 54 44 L 54 104.9375 L 0 104.9375 Z M 0 44 " clip-rule="nonzero"/></clipPath></defs><path stroke-linecap="round" transform="matrix(0.749143, 0, 0, 0.749143, 10.488, 51.750852)" fill="none" stroke-linejoin="miter" d="M 1.00152 1.000007 L 111.00224 1.000007 " stroke="#ded3b6" stroke-width="2" stroke-opacity="1" stroke-miterlimit="4"/><path stroke-linecap="round" transform="matrix(0, 0.749143, -0.749143, 0, 53.189141, 10.547997)" fill="none" stroke-linejoin="miter" d="M 0.999647 0.99812 L 111.000367 0.99812 " stroke="#ded3b6" stroke-width="2" stroke-opacity="1" stroke-miterlimit="4"/><g fill="#ff5900" fill-opacity="1"><g transform="translate(86.479176, 90.05702)"><g><path d="M 0.5625 -2.15625 L 5.4375 -6.46875 C 5.664062 -6.675781 5.851562 -6.882812 6 -7.09375 C 6.15625 -7.3125 6.234375 -7.554688 6.234375 -7.828125 C 6.234375 -8.273438 6.109375 -8.613281 5.859375 -8.84375 C 5.609375 -9.070312 5.203125 -9.1875 4.640625 -9.1875 C 4.191406 -9.1875 3.816406 -9.070312 3.515625 -8.84375 C 3.222656 -8.613281 3.035156 -8.273438 2.953125 -7.828125 L 0.5625 -7.828125 C 0.625 -8.304688 0.742188 -8.757812 0.921875 -9.1875 C 1.109375 -9.613281 1.363281 -9.988281 1.6875 -10.3125 C 2.019531 -10.632812 2.425781 -10.882812 2.90625 -11.0625 C 3.394531 -11.25 3.972656 -11.34375 4.640625 -11.34375 C 5.335938 -11.34375 5.941406 -11.257812 6.453125 -11.09375 C 6.960938 -10.925781 7.382812 -10.691406 7.71875 -10.390625 C 8.0625 -10.085938 8.3125 -9.734375 8.46875 -9.328125 C 8.632812 -8.921875 8.71875 -8.472656 8.71875 -7.984375 C 8.71875 -7.671875 8.671875 -7.378906 8.578125 -7.109375 C 8.492188 -6.835938 8.382812 -6.582031 8.25 -6.34375 C 8.113281 -6.101562 7.953125 -5.878906 7.765625 -5.671875 C 7.585938 -5.472656 7.394531 -5.285156 7.1875 -5.109375 L 3.84375 -2.15625 L 8.875 -2.15625 L 8.875 0 L 0.5625 0 Z M 0.5625 -2.15625 "/></g></g></g><path stroke-linecap="round" transform="matrix(0.749143, 0, 0, 0.749143, 44.797497, 51.750852)" fill="none" stroke-linejoin="miter" d="M -0.000830034 1.000007 L 20.402697 1.000007 " stroke="#ff5900" stroke-width="2" stroke-opacity="1" stroke-miterlimit="4"/><g clip-path="url(#7ac0fe3bf2)"><path stroke-linecap="round" transform="matrix(0.487132, -0.569137, 0.569137, 0.487132, 59.173145, 52.468111)" fill="none" stroke-linejoin="miter" d="M 0.763923 0.949966 C 11.505301 13.595802 36.075907 13.595129 74.471778 0.951338 " stroke="#ff5900" stroke-width="2" stroke-opacity="1" stroke-miterlimit="4"/></g><g clip-path="url(#32451ec5cd)"><path stroke-linecap="round" transform="matrix(0.477671, -0.5771, 0.5771, 0.477671, 3.532666, 91.409193)" fill="none" stroke-linejoin="miter" d="M 0.271229 9.316988 C 39.657987 -1.7727 64.615161 -1.771751 75.139425 9.315818 " stroke="#ff5900" stroke-width="2" stroke-opacity="1" stroke-miterlimit="4"/></g></svg>