<svg xmlns="http://www.w3.org/2000/svg" xmlns:xlink="http://www.w3.org/1999/xlink" width="140" zoomAndPan="magnify" viewBox="0 0 104.88 104.999996" height="120" preserveAspectRatio="xMidYMid meet" version="1.0"><defs><g/></defs><path stroke-linecap="round" transform="matrix(0.749143, 0, 0, 0.749143, 10.488, 51.750852)" fill="none" stroke-linejoin="miter" d="M 1.00152 1.000007 L 111.00224 1.000007 " stroke="#ded3b6" stroke-width="2" stroke-opacity="1" stroke-miterlimit="4"/><path stroke-linecap="round" transform="matrix(0, 0.749143, -0.749143, 0, 53.189141, 10.547997)" fill="none" stroke-linejoin="miter" d="M 0.999647 0.99812 L 111.000367 0.99812 " stroke="#ded3b6" stroke-width="2" stroke-opacity="1" stroke-miterlimit="4"/><g fill="#ff5900" fill-opacity="1"><g transform="translate(86.400164, 90.057027)"><g><path d="M 4.875 0.15625 C 4.300781 0.15625 3.742188 0.09375 3.203125 -0.03125 C 2.671875 -0.15625 2.203125 -0.359375 1.796875 -0.640625 C 1.390625 -0.921875 1.0625 -1.28125 0.8125 -1.71875 C 0.5625 -2.164062 0.425781 -2.710938 0.40625 -3.359375 L 2.796875 -3.359375 C 2.878906 -2.878906 3.101562 -2.53125 3.46875 -2.3125 C 3.832031 -2.101562 4.273438 -2 4.796875 -2 C 5.359375 -2 5.804688 -2.097656 6.140625 -2.296875 C 6.472656 -2.503906 6.640625 -2.832031 6.640625 -3.28125 C 6.640625 -3.726562 6.472656 -4.066406 6.140625 -4.296875 C 5.804688 -4.523438 5.359375 -4.640625 4.796875 -4.640625 L 3.84375 -4.640625 L 3.84375 -6.640625 L 4.796875 -6.640625 C 5.359375 -6.640625 5.773438 -6.757812 6.046875 -7 C 6.328125 -7.25 6.46875 -7.550781 6.46875 -7.90625 C 6.46875 -8.269531 6.328125 -8.570312 6.046875 -8.8125 C 5.773438 -9.0625 5.359375 -9.1875 4.796875 -9.1875 C 4.347656 -9.1875 3.945312 -9.078125 3.59375 -8.859375 C 3.25 -8.648438 3.035156 -8.304688 2.953125 -7.828125 L 0.5625 -7.828125 C 0.625 -8.410156 0.769531 -8.921875 1 -9.359375 C 1.226562 -9.796875 1.53125 -10.160156 1.90625 -10.453125 C 2.289062 -10.753906 2.734375 -10.976562 3.234375 -11.125 C 3.734375 -11.269531 4.28125 -11.34375 4.875 -11.34375 C 5.445312 -11.34375 5.976562 -11.269531 6.46875 -11.125 C 6.957031 -10.988281 7.378906 -10.78125 7.734375 -10.5 C 8.097656 -10.226562 8.378906 -9.894531 8.578125 -9.5 C 8.773438 -9.101562 8.875 -8.65625 8.875 -8.15625 C 8.875 -7.507812 8.707031 -6.984375 8.375 -6.578125 C 8.050781 -6.179688 7.628906 -5.878906 7.109375 -5.671875 C 7.671875 -5.472656 8.128906 -5.15625 8.484375 -4.71875 C 8.847656 -4.28125 9.03125 -3.71875 9.03125 -3.03125 C 9.03125 -2.507812 8.925781 -2.050781 8.71875 -1.65625 C 8.507812 -1.269531 8.222656 -0.9375 7.859375 -0.65625 C 7.492188 -0.382812 7.050781 -0.179688 6.53125 -0.046875 C 6.019531 0.0859375 5.46875 0.15625 4.875 0.15625 Z M 4.875 0.15625 "/></g></g></g><path stroke-linecap="round" transform="matrix(0.749143, 0, 0, 0.749143, 40.176032, 51.750852)" fill="none" stroke-linejoin="miter" d="M -0.000335148 1.000007 L 32.896638 1.000007 " stroke="#ff5900" stroke-width="2" stroke-opacity="1" stroke-miterlimit="4"/><path stroke-linecap="round" transform="matrix(0.431617, -0.612309, 0.612309, 0.431617, 63.891378, 52.631242)" fill="none" stroke-linejoin="miter" d="M 0.861873 0.909566 C 10.380685 17.083173 33.220822 17.085124 69.375017 0.91416 " stroke="#ff5900" stroke-width="2" stroke-opacity="1" stroke-miterlimit="4"/><path stroke-linecap="round" transform="matrix(0.432746, -0.611511, 0.611511, 0.432746, 2.155084, 88.941871)" fill="none" stroke-linejoin="miter" d="M 0.427722 13.330924 C 35.105399 -3.109501 57.97562 -3.107146 69.032362 13.329476 " stroke="#ff5900" stroke-width="2" stroke-opacity="1" stroke-miterlimit="4"/></svg>