<svg xmlns="http://www.w3.org/2000/svg" xmlns:xlink="http://www.w3.org/1999/xlink" width="720" zoomAndPan="magnify" viewBox="0 0 540 198.749996" height="265" preserveAspectRatio="xMidYMid meet" version="1.0"><defs><clipPath id="0b7bb7b3eb"><path d="M 164 0 L 397 0 L 397 198.5 L 164 198.5 Z M 164 0 " clip-rule="nonzero"/></clipPath><clipPath id="84c97591da"><path d="M 246 68 L 391 68 L 391 198.5 L 246 198.5 Z M 246 68 " clip-rule="nonzero"/></clipPath><clipPath id="3deab0606a"><path d="M 3.933594 14 L 160 14 L 160 154 L 3.933594 154 Z M 3.933594 14 " clip-rule="nonzero"/></clipPath></defs><g clip-path="url(#0b7bb7b3eb)"><path stroke-linecap="butt" transform="matrix(0.740735, 0, 0, 0.740735, 3.933613, -123.597833)" fill="none" stroke-linejoin="miter" d="M 301.737896 184.234502 L 390.474728 184.234502 C 393.111467 184.071024 395.75348 184.071024 398.39022 184.234502 C 402.492987 184.55091 417.838811 185.964203 430.605903 198.04047 C 433.991477 201.114908 436.860249 204.611225 439.212221 208.52942 C 441.564193 212.447615 443.299167 216.62421 444.417145 221.053932 C 449.237105 241.251357 437.640724 257.530587 435.20965 260.942528 C 432.673107 264.496852 429.7516 267.703128 426.445128 270.55608 C 423.14393 273.409032 419.547418 275.834832 415.660864 277.828207 C 413.055765 279.067475 410.366291 280.085256 407.597714 280.886825 C 404.581284 281.714761 401.512119 282.226289 398.39022 282.421408 C 357.325639 285.237445 337.191496 282.521604 337.191496 282.521604 C 337.033291 282.489963 336.927822 282.50051 336.880361 282.563792 C 335.841485 283.839974 361.249107 306.595036 413.1085 350.828978 " stroke="#fc5822" stroke-width="6" stroke-opacity="1" stroke-miterlimit="10"/></g><path fill="#fc5822" d="M 324.21875 115.476562 C 324.21875 115.851562 324.179688 116.222656 324.109375 116.589844 C 324.035156 116.957031 323.925781 117.316406 323.785156 117.660156 C 323.640625 118.007812 323.464844 118.335938 323.257812 118.648438 C 323.046875 118.957031 322.8125 119.246094 322.546875 119.511719 C 322.28125 119.777344 321.992188 120.011719 321.683594 120.222656 C 321.371094 120.429688 321.042969 120.605469 320.695312 120.75 C 320.351562 120.890625 319.992188 121 319.625 121.074219 C 319.257812 121.144531 318.886719 121.183594 318.511719 121.183594 C 318.136719 121.183594 317.765625 121.144531 317.398438 121.074219 C 317.03125 121 316.675781 120.890625 316.328125 120.75 C 315.984375 120.605469 315.65625 120.429688 315.34375 120.222656 C 315.03125 120.011719 314.742188 119.777344 314.476562 119.511719 C 314.214844 119.246094 313.976562 118.957031 313.769531 118.648438 C 313.5625 118.335938 313.386719 118.007812 313.242188 117.660156 C 313.097656 117.316406 312.988281 116.957031 312.917969 116.589844 C 312.84375 116.222656 312.808594 115.851562 312.808594 115.476562 C 312.808594 115.101562 312.84375 114.730469 312.917969 114.363281 C 312.988281 113.996094 313.097656 113.640625 313.242188 113.292969 C 313.386719 112.949219 313.5625 112.621094 313.769531 112.308594 C 313.976562 111.996094 314.214844 111.707031 314.476562 111.441406 C 314.742188 111.179688 315.03125 110.941406 315.34375 110.734375 C 315.65625 110.527344 315.984375 110.351562 316.328125 110.207031 C 316.675781 110.0625 317.03125 109.953125 317.398438 109.882812 C 317.765625 109.808594 318.136719 109.773438 318.511719 109.773438 C 318.886719 109.773438 319.257812 109.808594 319.625 109.882812 C 319.992188 109.953125 320.351562 110.0625 320.695312 110.207031 C 321.042969 110.351562 321.371094 110.527344 321.683594 110.734375 C 321.992188 110.941406 322.28125 111.179688 322.546875 111.441406 C 322.8125 111.707031 323.046875 111.996094 323.257812 112.308594 C 323.464844 112.621094 323.640625 112.949219 323.785156 113.292969 C 323.925781 113.640625 324.035156 113.996094 324.109375 114.363281 C 324.179688 114.730469 324.21875 115.101562 324.21875 115.476562 Z M 324.21875 115.476562 " fill-opacity="1" fill-rule="nonzero"/><path fill="#fc5822" d="M 324.128906 98.394531 C 324.128906 98.769531 324.089844 99.140625 324.019531 99.507812 C 323.945312 99.875 323.835938 100.230469 323.691406 100.578125 C 323.550781 100.921875 323.375 101.253906 323.164062 101.5625 C 322.957031 101.875 322.722656 102.164062 322.457031 102.429688 C 322.191406 102.695312 321.902344 102.929688 321.589844 103.136719 C 321.28125 103.347656 320.953125 103.523438 320.605469 103.664062 C 320.257812 103.808594 319.902344 103.917969 319.535156 103.988281 C 319.167969 104.0625 318.796875 104.101562 318.421875 104.101562 C 318.046875 104.101562 317.675781 104.0625 317.308594 103.988281 C 316.941406 103.917969 316.585938 103.808594 316.238281 103.664062 C 315.894531 103.523438 315.5625 103.347656 315.253906 103.136719 C 314.941406 102.929688 314.652344 102.695312 314.386719 102.429688 C 314.125 102.164062 313.886719 101.875 313.679688 101.5625 C 313.46875 101.253906 313.292969 100.921875 313.152344 100.578125 C 313.007812 100.230469 312.898438 99.875 312.828125 99.507812 C 312.753906 99.140625 312.71875 98.769531 312.71875 98.394531 C 312.71875 98.019531 312.753906 97.648438 312.828125 97.28125 C 312.898438 96.914062 313.007812 96.558594 313.152344 96.210938 C 313.292969 95.863281 313.46875 95.535156 313.679688 95.226562 C 313.886719 94.914062 314.125 94.625 314.386719 94.359375 C 314.652344 94.09375 314.941406 93.859375 315.253906 93.652344 C 315.5625 93.441406 315.894531 93.265625 316.238281 93.125 C 316.585938 92.980469 316.941406 92.871094 317.308594 92.800781 C 317.675781 92.726562 318.046875 92.6875 318.421875 92.6875 C 318.796875 92.6875 319.167969 92.726562 319.535156 92.800781 C 319.902344 92.871094 320.257812 92.980469 320.605469 93.125 C 320.953125 93.265625 321.28125 93.441406 321.59375 93.652344 C 321.902344 93.859375 322.191406 94.09375 322.457031 94.359375 C 322.722656 94.625 322.957031 94.914062 323.164062 95.226562 C 323.375 95.535156 323.550781 95.863281 323.691406 96.210938 C 323.835938 96.558594 323.945312 96.914062 324.019531 97.28125 C 324.089844 97.648438 324.128906 98.019531 324.128906 98.394531 Z M 324.128906 98.394531 " fill-opacity="1" fill-rule="nonzero"/><g clip-path="url(#84c97591da)"><path stroke-linecap="butt" transform="matrix(0.740735, 0, 0, 0.740735, 3.933613, -123.597833)" fill="none" stroke-linejoin="miter" d="M 436.807515 356.867111 C 436.807515 357.679227 436.728412 358.486069 436.564935 359.287638 C 436.40673 360.083933 436.174697 360.864408 435.863562 361.613242 C 435.552427 362.36735 435.167463 363.084543 434.713943 363.759548 C 434.260424 364.434553 433.748897 365.062097 433.174088 365.636907 C 432.594005 366.216989 431.971734 366.728517 431.291455 367.182036 C 430.61645 367.635555 429.899257 368.015246 429.14515 368.326381 C 428.396316 368.64279 427.621114 368.874823 426.819545 369.033027 C 426.02325 369.191232 425.216408 369.275607 424.399018 369.275607 C 423.586903 369.275607 422.78006 369.191232 421.978492 369.033027 C 421.182196 368.874823 420.406995 368.64279 419.652887 368.326381 C 418.89878 368.015246 418.18686 367.635555 417.506581 367.182036 C 416.831576 366.728517 416.204032 366.216989 415.629223 365.636907 C 415.04914 365.062097 414.537613 364.434553 414.084093 363.759548 C 413.630574 363.084543 413.250884 362.36735 412.939748 361.613242 C 412.628613 360.864408 412.391307 360.083933 412.233102 359.287638 C 412.074898 358.486069 411.995796 357.679227 411.995796 356.867111 C 411.995796 356.054995 412.074898 355.248153 412.233102 354.446584 C 412.391307 353.650289 412.628613 352.869814 412.939748 352.12098 C 413.250884 351.366872 413.630574 350.649679 414.084093 349.974674 C 414.537613 349.299669 415.04914 348.672125 415.629223 348.092042 C 416.204032 347.517233 416.831576 347.005705 417.506581 346.552186 C 418.18686 346.098667 418.89878 345.718976 419.652887 345.407841 C 420.406995 345.091432 421.182196 344.859399 421.978492 344.701195 C 422.78006 344.542991 423.586903 344.458615 424.399018 344.458615 C 425.216408 344.458615 426.02325 344.542991 426.819545 344.701195 C 427.621114 344.859399 428.396316 345.091432 429.14515 345.407841 C 429.899257 345.718976 430.61645 346.098667 431.291455 346.552186 C 431.971734 347.005705 432.594005 347.517233 433.174088 348.092042 C 433.748897 348.672125 434.260424 349.299669 434.713943 349.974674 C 435.167463 350.649679 435.552427 351.366872 435.863562 352.12098 C 436.174697 352.869814 436.40673 353.650289 436.564935 354.446584 C 436.728412 355.248153 436.807515 356.054995 436.807515 356.867111 Z M 436.807515 356.867111 " stroke="#fc5822" stroke-width="6" stroke-opacity="1" stroke-miterlimit="10"/></g><path fill="#fc5822" d="M 232.28125 140.71875 C 232.28125 141.097656 232.269531 141.480469 232.246094 141.859375 C 232.21875 142.242188 232.183594 142.621094 232.136719 142.996094 C 232.085938 143.375 232.023438 143.75 231.953125 144.125 C 231.878906 144.5 231.792969 144.871094 231.695312 145.238281 C 231.597656 145.605469 231.488281 145.972656 231.367188 146.332031 C 231.246094 146.695312 231.113281 147.050781 230.96875 147.402344 C 230.824219 147.757812 230.671875 148.105469 230.503906 148.445312 C 230.335938 148.789062 230.160156 149.125 229.96875 149.457031 C 229.78125 149.789062 229.582031 150.113281 229.375 150.429688 C 229.164062 150.75 228.945312 151.058594 228.714844 151.363281 C 228.484375 151.667969 228.246094 151.964844 227.996094 152.25 C 227.746094 152.539062 227.488281 152.820312 227.222656 153.089844 C 226.953125 153.363281 226.679688 153.625 226.394531 153.878906 C 226.109375 154.132812 225.816406 154.378906 225.515625 154.613281 C 225.21875 154.847656 224.910156 155.070312 224.59375 155.285156 C 224.28125 155.5 223.957031 155.707031 223.628906 155.898438 C 223.304688 156.09375 222.96875 156.277344 222.628906 156.449219 C 222.289062 156.621094 221.945312 156.78125 221.59375 156.933594 C 221.242188 157.082031 220.890625 157.21875 220.53125 157.347656 C 220.171875 157.472656 219.808594 157.589844 219.441406 157.691406 C 219.074219 157.796875 218.703125 157.886719 218.332031 157.964844 C 217.957031 158.046875 217.582031 158.113281 217.207031 158.167969 C 216.828125 158.222656 216.453125 158.265625 216.070312 158.296875 C 215.691406 158.324219 215.3125 158.34375 214.929688 158.347656 C 214.550781 158.355469 214.167969 158.347656 213.789062 158.328125 C 213.40625 158.3125 213.027344 158.28125 212.648438 158.234375 C 212.269531 158.191406 211.894531 158.136719 211.519531 158.066406 C 211.144531 158 210.773438 157.921875 210.402344 157.828125 C 210.03125 157.734375 209.667969 157.632812 209.304688 157.515625 C 208.941406 157.398438 208.582031 157.273438 208.226562 157.132812 C 207.871094 156.992188 207.523438 156.84375 207.179688 156.679688 C 206.832031 156.519531 206.492188 156.347656 206.160156 156.160156 C 205.828125 155.976562 205.5 155.785156 205.179688 155.578125 C 204.855469 155.371094 204.542969 155.15625 204.234375 154.933594 C 203.929688 154.707031 203.628906 154.472656 203.339844 154.226562 C 203.046875 153.980469 202.761719 153.726562 202.488281 153.464844 C 202.210938 153.199219 201.945312 152.929688 201.6875 152.648438 C 201.429688 152.367188 201.183594 152.078125 200.941406 151.78125 C 200.703125 151.484375 200.476562 151.179688 200.257812 150.867188 C 200.035156 150.554688 199.828125 150.238281 199.628906 149.914062 C 199.429688 149.585938 199.242188 149.257812 199.066406 148.917969 C 198.890625 148.582031 198.722656 148.238281 198.570312 147.890625 C 198.414062 147.542969 198.269531 147.1875 198.140625 146.832031 C 198.007812 146.472656 197.886719 146.113281 197.777344 145.746094 C 197.671875 145.382812 197.574219 145.015625 197.488281 144.640625 C 197.40625 144.269531 197.332031 143.898438 197.273438 143.519531 C 197.210938 143.144531 197.164062 142.765625 197.128906 142.386719 C 197.09375 142.007812 197.070312 141.628906 197.058594 141.246094 C 197.046875 140.867188 197.046875 140.484375 197.0625 140.105469 C 197.074219 139.722656 197.101562 139.34375 197.140625 138.964844 C 197.179688 138.585938 197.230469 138.207031 197.292969 137.832031 C 197.355469 137.457031 197.429688 137.082031 197.515625 136.710938 C 197.605469 136.339844 197.703125 135.972656 197.8125 135.609375 C 197.925781 135.246094 198.046875 134.882812 198.183594 134.527344 C 198.316406 134.171875 198.460938 133.820312 198.617188 133.472656 C 198.777344 133.125 198.945312 132.785156 199.125 132.449219 C 199.304688 132.109375 199.492188 131.78125 199.695312 131.457031 C 199.894531 131.132812 200.105469 130.816406 200.328125 130.507812 C 200.546875 130.195312 200.777344 129.894531 201.019531 129.597656 C 201.261719 129.304688 201.511719 129.015625 201.769531 128.738281 C 202.03125 128.457031 202.296875 128.1875 202.574219 127.925781 C 202.851562 127.664062 203.136719 127.414062 203.429688 127.167969 C 203.726562 126.925781 204.027344 126.695312 204.335938 126.46875 C 204.644531 126.246094 204.957031 126.035156 205.28125 125.832031 L 205.28125 35.71875 C 204.769531 35.351562 204.28125 34.960938 203.8125 34.546875 C 203.34375 34.128906 202.898438 33.691406 202.476562 33.226562 C 202.054688 32.761719 201.65625 32.277344 201.285156 31.769531 C 200.917969 31.265625 200.574219 30.738281 200.261719 30.199219 C 199.945312 29.65625 199.660156 29.097656 199.40625 28.523438 C 199.152344 27.949219 198.929688 27.367188 198.738281 26.769531 C 198.546875 26.171875 198.386719 25.566406 198.257812 24.953125 C 198.128906 24.335938 198.035156 23.71875 197.976562 23.09375 C 197.914062 22.46875 197.886719 21.84375 197.890625 21.21875 C 197.898438 20.589844 197.9375 19.964844 198.007812 19.34375 C 198.082031 18.71875 198.1875 18.101562 198.324219 17.492188 C 198.460938 16.878906 198.632812 16.277344 198.835938 15.683594 C 199.039062 15.089844 199.269531 14.507812 199.535156 13.941406 C 199.800781 13.371094 200.09375 12.816406 200.417969 12.28125 C 200.742188 11.742188 201.09375 11.226562 201.472656 10.726562 C 201.851562 10.226562 202.253906 9.75 202.6875 9.292969 C 203.117188 8.835938 203.570312 8.402344 204.046875 7.996094 C 204.523438 7.585938 205.019531 7.207031 205.535156 6.851562 C 206.050781 6.496094 206.585938 6.167969 207.136719 5.871094 C 207.691406 5.574219 208.257812 5.304688 208.835938 5.066406 C 209.417969 4.832031 210.007812 4.625 210.609375 4.449219 C 211.214844 4.277344 211.824219 4.132812 212.441406 4.023438 C 213.058594 3.917969 213.679688 3.839844 214.304688 3.796875 C 214.933594 3.753906 215.558594 3.746094 216.183594 3.769531 C 216.8125 3.792969 217.433594 3.851562 218.054688 3.941406 C 218.675781 4.03125 219.289062 4.15625 219.898438 4.3125 C 220.503906 4.46875 221.101562 4.65625 221.6875 4.875 C 222.277344 5.097656 222.851562 5.347656 223.410156 5.628906 C 223.972656 5.910156 224.515625 6.222656 225.042969 6.558594 C 225.570312 6.898438 226.078125 7.265625 226.566406 7.660156 C 227.054688 8.054688 227.519531 8.472656 227.964844 8.914062 C 228.40625 9.359375 228.824219 9.824219 229.21875 10.3125 C 229.613281 10.800781 229.980469 11.308594 230.320312 11.835938 C 230.65625 12.363281 230.96875 12.90625 231.25 13.46875 C 231.53125 14.027344 231.78125 14.601562 232.003906 15.1875 C 232.222656 15.777344 232.410156 16.375 232.566406 16.980469 C 232.722656 17.589844 232.847656 18.203125 232.9375 18.824219 C 233.027344 19.441406 233.085938 20.066406 233.109375 20.695312 C 233.132812 21.320312 233.125 21.945312 233.082031 22.570312 C 233.039062 23.199219 232.964844 23.820312 232.855469 24.4375 C 232.746094 25.054688 232.605469 25.664062 232.429688 26.265625 C 232.253906 26.871094 232.050781 27.460938 231.8125 28.042969 C 231.574219 28.621094 231.308594 29.1875 231.007812 29.738281 C 230.710938 30.292969 230.386719 30.828125 230.03125 31.34375 C 229.675781 31.859375 229.292969 32.355469 228.886719 32.832031 C 228.476562 33.308594 228.046875 33.761719 227.589844 34.191406 C 227.132812 34.621094 226.65625 35.027344 226.15625 35.40625 C 225.65625 35.785156 225.136719 36.136719 224.601562 36.460938 L 224.601562 126.175781 C 225.785156 126.984375 226.851562 127.921875 227.808594 128.992188 C 228.761719 130.058594 229.574219 131.226562 230.246094 132.496094 C 230.914062 133.761719 231.421875 135.089844 231.765625 136.480469 C 232.109375 137.871094 232.28125 139.285156 232.28125 140.71875 Z M 206.328125 21.089844 C 206.328125 21.695312 206.386719 22.292969 206.507812 22.882812 C 206.625 23.476562 206.796875 24.050781 207.027344 24.605469 C 207.261719 25.164062 207.542969 25.695312 207.878906 26.195312 C 208.214844 26.699219 208.59375 27.160156 209.019531 27.589844 C 209.449219 28.015625 209.914062 28.394531 210.414062 28.730469 C 210.914062 29.066406 211.445312 29.351562 212.003906 29.582031 C 212.558594 29.8125 213.136719 29.984375 213.726562 30.105469 C 214.320312 30.222656 214.917969 30.28125 215.519531 30.28125 C 216.121094 30.28125 216.71875 30.222656 217.3125 30.105469 C 217.902344 29.984375 218.480469 29.8125 219.035156 29.582031 C 219.59375 29.351562 220.125 29.066406 220.625 28.730469 C 221.125 28.394531 221.589844 28.015625 222.019531 27.589844 C 222.445312 27.160156 222.824219 26.699219 223.160156 26.195312 C 223.496094 25.695312 223.777344 25.164062 224.011719 24.605469 C 224.242188 24.050781 224.414062 23.476562 224.53125 22.882812 C 224.652344 22.292969 224.710938 21.695312 224.710938 21.089844 C 224.710938 20.488281 224.652344 19.890625 224.53125 19.296875 C 224.414062 18.707031 224.242188 18.132812 224.011719 17.574219 C 223.777344 17.015625 223.496094 16.488281 223.160156 15.984375 C 222.824219 15.484375 222.445312 15.019531 222.019531 14.59375 C 221.589844 14.164062 221.125 13.785156 220.625 13.449219 C 220.125 13.113281 219.59375 12.832031 219.035156 12.601562 C 218.480469 12.371094 217.902344 12.195312 217.3125 12.078125 C 216.71875 11.960938 216.121094 11.902344 215.519531 11.902344 C 214.917969 11.902344 214.320312 11.960938 213.726562 12.078125 C 213.136719 12.195312 212.558594 12.371094 212.003906 12.601562 C 211.445312 12.832031 210.914062 13.113281 210.414062 13.449219 C 209.914062 13.785156 209.449219 14.164062 209.019531 14.59375 C 208.59375 15.019531 208.214844 15.484375 207.878906 15.984375 C 207.542969 16.488281 207.261719 17.015625 207.027344 17.574219 C 206.796875 18.132812 206.625 18.707031 206.507812 19.296875 C 206.386719 19.890625 206.328125 20.488281 206.328125 21.089844 Z M 224.277344 140.746094 C 224.277344 140.144531 224.21875 139.546875 224.101562 138.953125 C 223.984375 138.363281 223.808594 137.785156 223.578125 137.230469 C 223.347656 136.671875 223.0625 136.140625 222.726562 135.640625 C 222.394531 135.136719 222.011719 134.675781 221.585938 134.246094 C 221.160156 133.820312 220.695312 133.441406 220.191406 133.105469 C 219.691406 132.769531 219.160156 132.488281 218.605469 132.253906 C 218.046875 132.023438 217.472656 131.851562 216.878906 131.734375 C 216.289062 131.613281 215.691406 131.554688 215.085938 131.554688 C 214.484375 131.554688 213.886719 131.613281 213.292969 131.734375 C 212.703125 131.851562 212.128906 132.023438 211.570312 132.253906 C 211.011719 132.488281 210.484375 132.769531 209.980469 133.105469 C 209.480469 133.441406 209.015625 133.820312 208.589844 134.246094 C 208.164062 134.675781 207.78125 135.140625 207.445312 135.640625 C 207.109375 136.140625 206.828125 136.671875 206.597656 137.230469 C 206.367188 137.785156 206.191406 138.363281 206.074219 138.953125 C 205.957031 139.546875 205.898438 140.144531 205.898438 140.746094 C 205.898438 141.347656 205.957031 141.945312 206.074219 142.539062 C 206.191406 143.128906 206.367188 143.707031 206.597656 144.261719 C 206.828125 144.820312 207.109375 145.351562 207.445312 145.851562 C 207.78125 146.351562 208.164062 146.816406 208.589844 147.246094 C 209.015625 147.671875 209.480469 148.050781 209.980469 148.386719 C 210.484375 148.722656 211.011719 149.003906 211.570312 149.238281 C 212.128906 149.46875 212.703125 149.640625 213.292969 149.757812 C 213.886719 149.878906 214.484375 149.9375 215.085938 149.9375 C 215.691406 149.9375 216.289062 149.878906 216.878906 149.757812 C 217.472656 149.640625 218.046875 149.46875 218.605469 149.234375 C 219.160156 149.003906 219.691406 148.722656 220.191406 148.386719 C 220.695312 148.050781 221.160156 147.671875 221.585938 147.246094 C 222.011719 146.816406 222.394531 146.351562 222.726562 145.851562 C 223.0625 145.351562 223.347656 144.820312 223.578125 144.261719 C 223.808594 143.707031 223.984375 143.128906 224.101562 142.539062 C 224.21875 141.945312 224.277344 141.347656 224.277344 140.746094 Z M 224.277344 140.746094 " fill-opacity="1" fill-rule="nonzero"/><path fill="#fc5822" d="M 387.429688 48.386719 L 387.429688 119.304688 L 367.34375 119.304688 L 367.34375 48.386719 Z M 387.429688 48.386719 " fill-opacity="1" fill-rule="nonzero"/><path fill="#fc5822" d="M 534.785156 132.109375 L 508.191406 154.761719 L 447.125 154.761719 L 447.125 128.167969 L 492.429688 128.167969 L 492.429688 114.378906 L 534.785156 114.378906 Z M 534.785156 132.109375 " fill-opacity="1" fill-rule="nonzero"/><path fill="#fc5822" d="M 534.785156 35.582031 L 508.191406 12.929688 L 447.125 12.929688 L 447.125 39.523438 L 492.429688 39.523438 L 492.429688 53.3125 L 534.785156 53.3125 Z M 534.785156 35.582031 " fill-opacity="1" fill-rule="nonzero"/><path fill="#fc5822" d="M 477.65625 12.929688 L 477.65625 39.523438 L 445.34375 39.523438 L 445.34375 12.929688 Z M 477.65625 12.929688 " fill-opacity="1" fill-rule="nonzero"/><path fill="#fc5822" d="M 477.65625 128.167969 L 477.65625 154.761719 L 445.34375 154.761719 L 445.34375 128.167969 Z M 477.65625 128.167969 " fill-opacity="1" fill-rule="nonzero"/><path fill="#fc5822" d="M 446.136719 12.929688 L 446.136719 154.761719 L 383.101562 154.761719 L 383.101562 12.929688 Z M 419.546875 128.167969 C 419.546875 127.585938 419.488281 127.007812 419.375 126.4375 C 419.261719 125.867188 419.09375 125.3125 418.871094 124.777344 C 418.648438 124.238281 418.375 123.726562 418.050781 123.242188 C 417.726562 122.757812 417.359375 122.3125 416.949219 121.898438 C 416.539062 121.488281 416.089844 121.121094 415.605469 120.796875 C 415.121094 120.472656 414.609375 120.199219 414.074219 119.976562 C 413.535156 119.753906 412.980469 119.585938 412.410156 119.472656 C 411.839844 119.359375 411.261719 119.304688 410.679688 119.304688 C 410.097656 119.304688 409.523438 119.359375 408.953125 119.472656 C 408.378906 119.585938 407.824219 119.753906 407.289062 119.976562 C 406.75 120.199219 406.238281 120.472656 405.753906 120.796875 C 405.273438 121.121094 404.824219 121.488281 404.414062 121.898438 C 404 122.3125 403.632812 122.757812 403.308594 123.242188 C 402.988281 123.726562 402.714844 124.238281 402.492188 124.777344 C 402.269531 125.3125 402.101562 125.867188 401.988281 126.4375 C 401.871094 127.007812 401.816406 127.585938 401.816406 128.167969 C 401.816406 128.75 401.871094 129.328125 401.988281 129.898438 C 402.101562 130.46875 402.269531 131.023438 402.492188 131.558594 C 402.714844 132.097656 402.988281 132.609375 403.308594 133.09375 C 403.632812 133.578125 404 134.023438 404.414062 134.4375 C 404.824219 134.847656 405.273438 135.214844 405.753906 135.539062 C 406.238281 135.863281 406.75 136.136719 407.289062 136.359375 C 407.824219 136.582031 408.378906 136.75 408.953125 136.863281 C 409.523438 136.976562 410.097656 137.03125 410.679688 137.03125 C 411.261719 137.03125 411.839844 136.976562 412.410156 136.863281 C 412.980469 136.75 413.535156 136.582031 414.074219 136.359375 C 414.609375 136.136719 415.121094 135.863281 415.605469 135.539062 C 416.089844 135.214844 416.539062 134.847656 416.949219 134.4375 C 417.359375 134.023438 417.726562 133.578125 418.050781 133.09375 C 418.375 132.609375 418.648438 132.097656 418.871094 131.558594 C 419.09375 131.023438 419.261719 130.46875 419.375 129.898438 C 419.488281 129.328125 419.546875 128.75 419.546875 128.167969 Z M 419.546875 39.523438 C 419.546875 38.941406 419.488281 38.363281 419.375 37.792969 C 419.261719 37.222656 419.09375 36.667969 418.871094 36.128906 C 418.648438 35.59375 418.375 35.082031 418.050781 34.597656 C 417.726562 34.113281 417.359375 33.664062 416.949219 33.253906 C 416.539062 32.84375 416.089844 32.476562 415.605469 32.152344 C 415.121094 31.828125 414.609375 31.554688 414.074219 31.332031 C 413.535156 31.109375 412.980469 30.941406 412.410156 30.828125 C 411.839844 30.714844 411.261719 30.65625 410.679688 30.65625 C 410.097656 30.65625 409.523438 30.714844 408.953125 30.828125 C 408.378906 30.941406 407.824219 31.109375 407.289062 31.332031 C 406.75 31.554688 406.238281 31.828125 405.753906 32.152344 C 405.273438 32.476562 404.824219 32.84375 404.414062 33.253906 C 404 33.664062 403.632812 34.113281 403.308594 34.597656 C 402.988281 35.082031 402.714844 35.59375 402.492188 36.128906 C 402.269531 36.667969 402.101562 37.222656 401.988281 37.792969 C 401.871094 38.363281 401.816406 38.941406 401.816406 39.523438 C 401.816406 40.105469 401.871094 40.679688 401.988281 41.253906 C 402.101562 41.824219 402.269531 42.378906 402.492188 42.914062 C 402.714844 43.453125 402.988281 43.964844 403.308594 44.449219 C 403.632812 44.929688 404 45.378906 404.414062 45.789062 C 404.824219 46.203125 405.273438 46.570312 405.753906 46.894531 C 406.238281 47.214844 406.75 47.488281 407.289062 47.710938 C 407.824219 47.933594 408.378906 48.101562 408.953125 48.214844 C 409.523438 48.332031 410.097656 48.386719 410.679688 48.386719 C 411.261719 48.386719 411.839844 48.332031 412.410156 48.21875 C 412.980469 48.101562 413.535156 47.933594 414.074219 47.710938 C 414.609375 47.488281 415.121094 47.214844 415.605469 46.894531 C 416.089844 46.570312 416.539062 46.203125 416.949219 45.789062 C 417.359375 45.378906 417.726562 44.929688 418.050781 44.449219 C 418.375 43.964844 418.648438 43.453125 418.871094 42.914062 C 419.09375 42.378906 419.261719 41.824219 419.375 41.253906 C 419.488281 40.679688 419.546875 40.105469 419.546875 39.523438 Z M 419.546875 39.523438 " fill-opacity="1" fill-rule="nonzero"/><path fill="#fc5822" d="M 81.554688 -0.171875 L 106.164062 -0.171875 L 106.164062 28.929688 L 81.554688 28.929688 Z M 81.554688 -0.171875 " fill-opacity="1" fill-rule="nonzero"/><path fill="#fc5822" d="M 163.300781 32.800781 L 144.320312 50.441406 L 163.300781 32.800781 C 152.613281 24.085938 139.15625 17.566406 124.085938 14.113281 L 124.085938 38.527344 C 131.863281 41.398438 138.707031 45.742188 144.617188 51.558594 L 164.082031 33.472656 C 163.820312 33.25 163.566406 33.019531 163.300781 32.800781 Z M 163.300781 32.800781 " fill-opacity="1" fill-rule="nonzero"/><g clip-path="url(#3deab0606a)"><path fill="#fc5822" d="M 93.984375 127.980469 C 62.167969 127.980469 36.375 106.808594 36.375 80.6875 C 36.375 63.089844 48.089844 47.75 65.460938 39.605469 L 65.460938 14.117188 C 29.734375 23.53125 3.933594 50.46875 3.933594 82.246094 C 3.933594 121.855469 44 153.96875 93.425781 153.96875 C 118.820312 153.96875 141.722656 145.476562 158.011719 131.863281 L 138.171875 113.429688 L 158.011719 131.863281 C 158.429688 131.515625 158.828125 131.148438 159.234375 130.792969 L 138.070312 111.125 C 127.5 121.429688 111.679688 127.980469 93.984375 127.980469 Z M 93.984375 127.980469 " fill-opacity="1" fill-rule="nonzero"/></g><path fill="#fc5822" d="M 14.96875 197.824219 C 13.054688 197.871094 11.304688 197.371094 9.707031 196.320312 C 8.140625 195.234375 7.003906 193.804688 6.289062 192.035156 C 5.492188 189.9375 5.09375 187.769531 5.09375 185.527344 C 5.09375 183.285156 5.492188 181.117188 6.289062 179.019531 C 7.003906 177.25 8.140625 175.824219 9.707031 174.734375 C 11.304688 173.683594 13.054688 173.183594 14.96875 173.230469 C 16.046875 173.171875 17.09375 173.320312 18.113281 173.675781 C 19.132812 174.03125 20.050781 174.566406 20.859375 175.28125 C 22.445312 176.871094 23.488281 178.761719 23.984375 180.949219 L 19.203125 180.949219 C 18.902344 179.96875 18.367188 179.136719 17.597656 178.457031 C 16.832031 177.832031 15.953125 177.535156 14.96875 177.570312 C 13.941406 177.539062 13.035156 177.859375 12.25 178.523438 C 11.433594 179.277344 10.882812 180.1875 10.59375 181.257812 C 9.855469 184.105469 9.855469 186.953125 10.59375 189.796875 C 10.882812 190.871094 11.433594 191.78125 12.25 192.53125 C 13.035156 193.195312 13.9375 193.515625 14.96875 193.484375 C 15.953125 193.519531 16.832031 193.222656 17.597656 192.597656 C 18.367188 191.917969 18.902344 191.085938 19.203125 190.105469 L 23.984375 190.105469 C 23.488281 192.296875 22.445312 194.183594 20.859375 195.773438 C 20.050781 196.488281 19.132812 197.023438 18.113281 197.378906 C 17.09375 197.734375 16.046875 197.882812 14.96875 197.824219 Z M 14.96875 197.824219 " fill-opacity="1" fill-rule="nonzero"/><path fill="#fc5822" d="M 31.5 197.484375 L 38.875 173.570312 L 44.648438 173.570312 L 52.09375 197.484375 L 47.175781 197.484375 L 41.847656 178.628906 L 41.679688 178.628906 L 36.210938 197.484375 Z M 36.144531 192.769531 L 37.75 188.566406 L 45.949219 188.566406 L 47.550781 192.769531 Z M 36.144531 192.769531 " fill-opacity="1" fill-rule="nonzero"/><path fill="#fc5822" d="M 61.316406 197.484375 L 61.316406 173.570312 L 70.78125 173.570312 C 72.078125 173.546875 73.300781 173.828125 74.453125 174.425781 C 75.503906 174.980469 76.332031 175.773438 76.929688 176.800781 C 77.539062 177.863281 77.835938 179.007812 77.816406 180.234375 C 77.804688 181.289062 77.53125 182.277344 76.996094 183.1875 C 76.515625 184.09375 75.835938 184.804688 74.945312 185.324219 C 75.914062 185.824219 76.675781 186.539062 77.234375 187.476562 C 77.855469 188.441406 78.160156 189.5 78.15625 190.652344 C 78.179688 191.914062 77.878906 193.089844 77.253906 194.1875 C 76.644531 195.238281 75.800781 196.046875 74.726562 196.613281 C 73.550781 197.21875 72.304688 197.507812 70.984375 197.484375 Z M 69.996094 183.648438 C 70.570312 183.660156 71.117188 183.535156 71.632812 183.273438 C 72.101562 183.035156 72.46875 182.6875 72.726562 182.230469 C 72.988281 181.746094 73.117188 181.230469 73.101562 180.675781 C 73.148438 179.839844 72.875 179.121094 72.28125 178.523438 C 71.628906 177.949219 70.863281 177.6875 69.996094 177.738281 L 66.03125 177.738281 L 66.03125 183.648438 Z M 70.335938 193.316406 C 70.910156 193.324219 71.453125 193.210938 71.976562 192.972656 C 72.449219 192.757812 72.8125 192.421875 73.070312 191.964844 C 73.335938 191.46875 73.460938 190.941406 73.445312 190.378906 C 73.488281 189.539062 73.214844 188.820312 72.625 188.226562 C 71.96875 187.648438 71.207031 187.386719 70.335938 187.441406 L 66.03125 187.441406 L 66.03125 193.316406 Z M 70.335938 193.316406 " fill-opacity="1" fill-rule="nonzero"/><path fill="#fc5822" d="M 88.542969 197.484375 L 88.542969 173.570312 L 96.945312 173.570312 C 98.429688 173.535156 99.816406 173.882812 101.109375 174.613281 C 102.285156 175.289062 103.199219 176.222656 103.84375 177.414062 C 104.5 178.636719 104.816406 179.941406 104.800781 181.324219 C 104.820312 182.6875 104.5 183.960938 103.84375 185.152344 C 103.195312 186.3125 102.285156 187.207031 101.109375 187.832031 C 99.804688 188.515625 98.417969 188.839844 96.945312 188.804688 L 93.253906 188.804688 L 93.253906 197.484375 Z M 96.636719 184.84375 C 97.289062 184.859375 97.90625 184.710938 98.480469 184.398438 C 99.007812 184.105469 99.414062 183.6875 99.695312 183.152344 C 99.988281 182.589844 100.128906 181.992188 100.121094 181.359375 C 100.15625 180.371094 99.84375 179.511719 99.179688 178.78125 C 98.484375 178.058594 97.636719 177.722656 96.636719 177.773438 L 93.253906 177.773438 L 93.253906 184.84375 Z M 100.429688 197.480469 L 95.132812 187.578125 L 99.984375 187.578125 L 105.550781 197.480469 Z M 100.429688 197.480469 " fill-opacity="1" fill-rule="nonzero"/><path fill="#fc5822" d="M 115.59375 197.484375 L 115.59375 173.570312 L 120.410156 173.570312 L 120.410156 197.484375 Z M 115.59375 197.484375 " fill-opacity="1" fill-rule="nonzero"/><path fill="#fc5822" d="M 131.816406 197.484375 L 131.816406 173.570312 L 136.738281 173.570312 L 136.738281 193.144531 L 146.027344 193.144531 L 146.027344 197.484375 Z M 131.816406 197.484375 " fill-opacity="1" fill-rule="nonzero"/><path fill="#fc5822" d="M 155.558594 197.484375 L 155.558594 173.570312 L 160.476562 173.570312 L 160.476562 193.144531 L 169.765625 193.144531 L 169.765625 197.484375 Z M 155.558594 197.484375 " fill-opacity="1" fill-rule="nonzero"/><path fill="#fc5822" d="M 186.777344 197.824219 C 184.867188 197.871094 183.113281 197.371094 181.515625 196.320312 C 179.953125 195.234375 178.8125 193.804688 178.101562 192.035156 C 177.304688 189.9375 176.90625 187.769531 176.90625 185.527344 C 176.90625 183.285156 177.304688 181.117188 178.101562 179.019531 C 178.8125 177.25 179.953125 175.824219 181.515625 174.734375 C 182.308594 174.242188 183.152344 173.871094 184.046875 173.613281 C 184.941406 173.359375 185.855469 173.230469 186.785156 173.230469 C 187.714844 173.230469 188.628906 173.359375 189.523438 173.613281 C 190.421875 173.871094 191.265625 174.242188 192.054688 174.734375 C 193.621094 175.8125 194.753906 177.234375 195.453125 179.003906 C 196.226562 181.109375 196.613281 183.285156 196.613281 185.527344 C 196.613281 187.769531 196.226562 189.945312 195.453125 192.050781 C 194.753906 193.820312 193.621094 195.242188 192.054688 196.320312 C 190.453125 197.371094 188.691406 197.871094 186.777344 197.824219 Z M 186.777344 193.484375 C 187.804688 193.515625 188.710938 193.195312 189.492188 192.53125 C 190.3125 191.777344 190.867188 190.867188 191.167969 189.796875 C 191.929688 186.949219 191.929688 184.105469 191.167969 181.257812 C 190.867188 180.1875 190.3125 179.277344 189.492188 178.523438 C 189.109375 178.214844 188.683594 177.980469 188.214844 177.816406 C 187.75 177.652344 187.269531 177.570312 186.777344 177.570312 C 186.285156 177.570312 185.804688 177.652344 185.335938 177.816406 C 184.871094 177.980469 184.445312 178.214844 184.0625 178.523438 C 183.246094 179.273438 182.691406 180.1875 182.40625 181.257812 C 181.664062 184.105469 181.664062 186.949219 182.40625 189.796875 C 182.691406 190.867188 183.246094 191.78125 184.0625 192.53125 C 184.84375 193.195312 185.75 193.515625 186.777344 193.484375 Z M 186.777344 193.484375 " fill-opacity="1" fill-rule="nonzero"/><path fill="#fc5822" d="M 220.214844 197.484375 L 220.214844 173.570312 L 228.621094 173.570312 C 230.105469 173.535156 231.492188 173.882812 232.785156 174.613281 C 233.960938 175.289062 234.871094 176.222656 235.519531 177.414062 C 236.175781 178.636719 236.492188 179.941406 236.476562 181.324219 C 236.496094 182.6875 236.175781 183.960938 235.519531 185.152344 C 234.871094 186.3125 233.957031 187.207031 232.785156 187.832031 C 231.480469 188.515625 230.09375 188.839844 228.621094 188.804688 L 224.929688 188.804688 L 224.929688 197.484375 Z M 228.3125 184.84375 C 228.964844 184.859375 229.582031 184.710938 230.15625 184.398438 C 230.683594 184.105469 231.089844 183.6875 231.367188 183.152344 C 231.664062 182.589844 231.804688 181.992188 231.796875 181.359375 C 231.832031 180.371094 231.519531 179.511719 230.855469 178.78125 C 230.160156 178.058594 229.3125 177.722656 228.3125 177.773438 L 224.929688 177.773438 L 224.929688 184.84375 Z M 232.101562 197.480469 L 226.808594 187.578125 L 231.660156 187.578125 L 237.226562 197.480469 Z M 232.101562 197.480469 " fill-opacity="1" fill-rule="nonzero"/><path fill="#fc5822" d="M 255.945312 197.824219 C 254.035156 197.871094 252.28125 197.371094 250.683594 196.320312 C 249.117188 195.234375 247.980469 193.804688 247.269531 192.035156 C 246.472656 189.9375 246.074219 187.769531 246.074219 185.527344 C 246.074219 183.285156 246.472656 181.117188 247.269531 179.019531 C 247.980469 177.25 249.121094 175.824219 250.683594 174.734375 C 251.476562 174.242188 252.320312 173.871094 253.214844 173.613281 C 254.109375 173.359375 255.023438 173.230469 255.953125 173.230469 C 256.882812 173.230469 257.796875 173.359375 258.691406 173.613281 C 259.589844 173.871094 260.429688 174.242188 261.222656 174.734375 C 262.789062 175.8125 263.921875 177.234375 264.621094 179.003906 C 265.394531 181.109375 265.78125 183.285156 265.78125 185.527344 C 265.78125 187.769531 265.394531 189.945312 264.621094 192.050781 C 263.921875 193.820312 262.789062 195.242188 261.222656 196.320312 C 259.617188 197.371094 257.859375 197.871094 255.945312 197.824219 Z M 255.945312 193.484375 C 256.972656 193.515625 257.878906 193.195312 258.660156 192.53125 C 259.476562 191.777344 260.035156 190.867188 260.332031 189.796875 C 261.097656 186.949219 261.097656 184.105469 260.332031 181.257812 C 260.035156 180.1875 259.476562 179.277344 258.660156 178.523438 C 258.277344 178.214844 257.851562 177.980469 257.382812 177.816406 C 256.917969 177.652344 256.4375 177.570312 255.945312 177.570312 C 255.449219 177.570312 254.972656 177.652344 254.503906 177.816406 C 254.039062 177.980469 253.613281 178.214844 253.230469 178.523438 C 252.410156 179.273438 251.859375 180.1875 251.574219 181.257812 C 250.832031 184.105469 250.832031 186.949219 251.574219 189.796875 C 251.859375 190.867188 252.410156 191.78125 253.230469 192.53125 C 254.011719 193.195312 254.917969 193.515625 255.945312 193.484375 Z M 255.945312 193.484375 " fill-opacity="1" fill-rule="nonzero"/><path fill="#fc5822" d="M 276.027344 197.484375 L 276.027344 173.570312 L 285.492188 173.570312 C 286.785156 173.546875 288.011719 173.828125 289.160156 174.425781 C 290.214844 174.980469 291.039062 175.773438 291.636719 176.800781 C 292.25 177.863281 292.546875 179.007812 292.527344 180.234375 C 292.515625 181.289062 292.242188 182.277344 291.707031 183.1875 C 291.226562 184.09375 290.542969 184.804688 289.65625 185.324219 C 290.625 185.824219 291.386719 186.539062 291.945312 187.476562 C 292.5625 188.441406 292.871094 189.5 292.867188 190.652344 C 292.890625 191.914062 292.589844 193.089844 291.964844 194.1875 C 291.351562 195.238281 290.511719 196.046875 289.4375 196.613281 C 288.261719 197.21875 287.015625 197.507812 285.695312 197.484375 Z M 284.703125 183.648438 C 285.28125 183.660156 285.828125 183.535156 286.34375 183.273438 C 286.8125 183.035156 287.175781 182.6875 287.4375 182.230469 C 287.699219 181.746094 287.824219 181.230469 287.8125 180.675781 C 287.859375 179.839844 287.585938 179.121094 286.992188 178.523438 C 286.339844 177.949219 285.574219 177.6875 284.703125 177.738281 L 280.742188 177.738281 L 280.742188 183.648438 Z M 285.046875 193.316406 C 285.617188 193.324219 286.164062 193.210938 286.6875 192.972656 C 287.160156 192.757812 287.523438 192.421875 287.777344 191.964844 C 288.042969 191.46875 288.167969 190.941406 288.15625 190.378906 C 288.199219 189.539062 287.925781 188.824219 287.335938 188.226562 C 286.679688 187.648438 285.917969 187.386719 285.046875 187.441406 L 280.742188 187.441406 L 280.742188 193.316406 Z M 285.046875 193.316406 " fill-opacity="1" fill-rule="nonzero"/><path fill="#fc5822" d="M 312.097656 197.824219 C 310.1875 197.871094 308.433594 197.371094 306.835938 196.320312 C 305.273438 195.234375 304.132812 193.804688 303.421875 192.035156 C 302.625 189.9375 302.226562 187.769531 302.226562 185.527344 C 302.226562 183.285156 302.625 181.117188 303.421875 179.019531 C 304.132812 177.25 305.273438 175.824219 306.835938 174.734375 C 307.628906 174.242188 308.472656 173.871094 309.367188 173.613281 C 310.261719 173.359375 311.175781 173.230469 312.105469 173.230469 C 313.039062 173.230469 313.949219 173.359375 314.847656 173.613281 C 315.742188 173.871094 316.585938 174.242188 317.375 174.734375 C 318.941406 175.8125 320.074219 177.234375 320.773438 179.003906 C 321.546875 181.109375 321.933594 183.285156 321.933594 185.527344 C 321.933594 187.769531 321.546875 189.945312 320.773438 192.050781 C 320.074219 193.820312 318.941406 195.246094 317.375 196.320312 C 315.773438 197.371094 314.011719 197.871094 312.097656 197.824219 Z M 312.097656 193.484375 C 313.125 193.515625 314.03125 193.195312 314.8125 192.53125 C 315.632812 191.777344 316.191406 190.867188 316.488281 189.796875 C 317.253906 186.949219 317.253906 184.105469 316.488281 181.257812 C 316.191406 180.1875 315.632812 179.277344 314.8125 178.523438 C 314.429688 178.214844 314.003906 177.980469 313.539062 177.816406 C 313.070312 177.652344 312.59375 177.570312 312.097656 177.570312 C 311.605469 177.570312 311.125 177.652344 310.660156 177.816406 C 310.191406 177.980469 309.765625 178.214844 309.382812 178.523438 C 308.566406 179.273438 308.011719 180.1875 307.726562 181.257812 C 306.984375 184.105469 306.984375 186.949219 307.726562 189.796875 C 308.011719 190.867188 308.566406 191.78125 309.382812 192.53125 C 310.164062 193.195312 311.070312 193.515625 312.097656 193.484375 Z M 312.097656 193.484375 " fill-opacity="1" fill-rule="nonzero"/><path fill="#fc5822" d="M 335.460938 197.484375 L 335.460938 177.910156 L 329.140625 177.910156 L 329.140625 173.570312 L 346.597656 173.570312 L 346.597656 177.910156 L 340.378906 177.910156 L 340.378906 197.484375 Z M 335.460938 197.484375 " fill-opacity="1" fill-rule="nonzero"/><path fill="#fc5822" d="M 356.296875 197.484375 L 356.296875 173.570312 L 361.113281 173.570312 L 361.113281 197.484375 Z M 356.296875 197.484375 " fill-opacity="1" fill-rule="nonzero"/><path fill="#fc5822" d="M 381.367188 197.824219 C 379.457031 197.871094 377.703125 197.371094 376.109375 196.320312 C 374.542969 195.234375 373.402344 193.804688 372.691406 192.035156 C 371.894531 189.9375 371.496094 187.769531 371.496094 185.527344 C 371.496094 183.285156 371.894531 181.117188 372.691406 179.019531 C 373.402344 177.25 374.542969 175.824219 376.109375 174.734375 C 377.703125 173.683594 379.457031 173.183594 381.367188 173.230469 C 382.445312 173.171875 383.496094 173.320312 384.515625 173.675781 C 385.535156 174.03125 386.449219 174.566406 387.261719 175.28125 C 388.847656 176.871094 389.886719 178.761719 390.386719 180.949219 L 385.605469 180.949219 C 385.304688 179.96875 384.769531 179.136719 384 178.457031 C 383.234375 177.832031 382.355469 177.535156 381.367188 177.570312 C 380.339844 177.539062 379.4375 177.859375 378.652344 178.523438 C 377.835938 179.277344 377.285156 180.1875 376.996094 181.257812 C 376.253906 184.105469 376.253906 186.953125 376.996094 189.796875 C 377.285156 190.871094 377.835938 191.78125 378.652344 192.53125 C 379.4375 193.195312 380.339844 193.515625 381.367188 193.484375 C 382.355469 193.519531 383.234375 193.222656 384 192.597656 C 384.769531 191.917969 385.304688 191.085938 385.605469 190.105469 L 390.386719 190.105469 C 389.886719 192.296875 388.847656 194.183594 387.261719 195.773438 C 386.449219 196.488281 385.535156 197.023438 384.515625 197.378906 C 383.496094 197.734375 382.445312 197.882812 381.367188 197.824219 Z M 381.367188 197.824219 " fill-opacity="1" fill-rule="nonzero"/><path fill="#fc5822" d="M 407.191406 197.824219 C 405.707031 197.84375 404.28125 197.554688 402.921875 196.953125 C 401.667969 196.398438 400.648438 195.554688 399.863281 194.425781 C 399.058594 193.21875 398.621094 191.894531 398.550781 190.445312 L 403.433594 190.445312 C 403.484375 191.375 403.859375 192.144531 404.5625 192.75 C 405.335938 193.359375 406.210938 193.636719 407.191406 193.589844 C 407.894531 193.617188 408.566406 193.492188 409.207031 193.214844 C 409.6875 192.988281 410.054688 192.648438 410.316406 192.1875 C 410.566406 191.730469 410.683594 191.242188 410.675781 190.71875 C 410.691406 190.148438 410.503906 189.652344 410.113281 189.234375 C 409.703125 188.808594 409.222656 188.484375 408.679688 188.261719 C 408.097656 188.011719 407.304688 187.714844 406.304688 187.371094 C 405.082031 187 403.898438 186.535156 402.75 185.972656 C 401.769531 185.457031 400.960938 184.746094 400.328125 183.835938 C 399.574219 182.691406 399.234375 181.433594 399.300781 180.0625 C 399.265625 178.714844 399.621094 177.480469 400.359375 176.355469 C 401.082031 175.296875 402.035156 174.515625 403.214844 174.015625 C 404.472656 173.476562 405.789062 173.214844 407.160156 173.230469 C 408.691406 173.183594 410.148438 173.488281 411.53125 174.152344 C 412.664062 174.714844 413.566406 175.535156 414.230469 176.613281 C 414.863281 177.6875 415.214844 178.847656 415.289062 180.097656 L 410.402344 180.097656 C 410.316406 179.328125 409.980469 178.691406 409.394531 178.183594 C 408.773438 177.671875 408.0625 177.433594 407.261719 177.464844 C 406.683594 177.453125 406.132812 177.5625 405.605469 177.792969 C 405.152344 177.988281 404.804688 178.300781 404.5625 178.730469 C 404.332031 179.144531 404.21875 179.589844 404.222656 180.0625 C 404.195312 180.671875 404.382812 181.207031 404.785156 181.667969 C 405.203125 182.109375 405.691406 182.445312 406.253906 182.675781 C 406.855469 182.9375 407.671875 183.238281 408.695312 183.582031 C 409.917969 183.984375 411.109375 184.46875 412.265625 185.03125 C 413.230469 185.53125 414.015625 186.230469 414.621094 187.132812 C 415.324219 188.226562 415.648438 189.421875 415.59375 190.71875 C 415.617188 191.378906 415.539062 192.027344 415.363281 192.664062 C 415.191406 193.300781 414.925781 193.894531 414.570312 194.453125 C 414.214844 195.007812 413.785156 195.5 413.28125 195.925781 C 412.777344 196.351562 412.222656 196.695312 411.617188 196.953125 C 410.207031 197.566406 408.730469 197.859375 407.191406 197.824219 Z M 407.191406 197.824219 " fill-opacity="1" fill-rule="nonzero"/><path fill="#fc5822" d="M 447.804688 197.824219 C 445.894531 197.871094 444.140625 197.371094 442.542969 196.320312 C 440.976562 195.234375 439.839844 193.804688 439.128906 192.035156 C 438.332031 189.9375 437.933594 187.769531 437.933594 185.527344 C 437.933594 183.285156 438.332031 181.117188 439.128906 179.019531 C 439.839844 177.25 440.976562 175.824219 442.542969 174.734375 C 444.140625 173.683594 445.894531 173.183594 447.804688 173.230469 C 448.882812 173.171875 449.933594 173.320312 450.953125 173.675781 C 451.972656 174.03125 452.886719 174.566406 453.695312 175.28125 C 455.28125 176.871094 456.324219 178.761719 456.820312 180.949219 L 452.039062 180.949219 C 451.738281 179.96875 451.203125 179.136719 450.433594 178.457031 C 449.667969 177.832031 448.792969 177.535156 447.804688 177.570312 C 446.777344 177.539062 445.871094 177.859375 445.089844 178.523438 C 444.273438 179.277344 443.71875 180.1875 443.433594 181.257812 C 442.691406 184.105469 442.691406 186.953125 443.433594 189.796875 C 443.71875 190.871094 444.273438 191.78125 445.089844 192.53125 C 445.871094 193.195312 446.777344 193.515625 447.804688 193.484375 C 448.792969 193.519531 449.667969 193.222656 450.433594 192.597656 C 451.203125 191.917969 451.738281 191.085938 452.039062 190.105469 L 456.820312 190.105469 C 456.324219 192.296875 455.28125 194.183594 453.695312 195.773438 C 452.886719 196.488281 451.972656 197.023438 450.953125 197.378906 C 449.933594 197.734375 448.882812 197.882812 447.804688 197.824219 Z M 447.804688 197.824219 " fill-opacity="1" fill-rule="nonzero"/><path fill="#fc5822" d="M 466.691406 197.484375 L 466.691406 173.570312 L 471.613281 173.570312 L 471.613281 193.144531 L 480.902344 193.144531 L 480.902344 197.484375 Z M 466.691406 197.484375 " fill-opacity="1" fill-rule="nonzero"/><path fill="#fc5822" d="M 498.289062 197.824219 C 496.578125 197.878906 494.976562 197.480469 493.488281 196.628906 C 492.109375 195.769531 491.101562 194.589844 490.46875 193.09375 C 489.695312 191.203125 489.339844 189.242188 489.40625 187.203125 L 489.40625 173.570312 L 494.328125 173.570312 L 494.328125 187.203125 C 494.289062 188.441406 494.445312 189.652344 494.804688 190.839844 C 495.039062 191.644531 495.476562 192.316406 496.121094 192.855469 C 496.769531 193.3125 497.492188 193.523438 498.289062 193.484375 C 499.054688 193.511719 499.75 193.300781 500.371094 192.855469 C 501.023438 192.320312 501.46875 191.648438 501.703125 190.839844 C 502.0625 189.652344 502.222656 188.441406 502.183594 187.203125 L 502.183594 173.570312 L 507.136719 173.570312 L 507.136719 187.203125 C 507.203125 189.242188 506.84375 191.207031 506.058594 193.09375 C 505.410156 194.59375 504.390625 195.769531 503.003906 196.628906 C 501.542969 197.472656 499.972656 197.867188 498.289062 197.824219 Z M 498.289062 197.824219 " fill-opacity="1" fill-rule="nonzero"/><path fill="#fc5822" d="M 518.132812 197.484375 L 518.132812 173.570312 L 527.59375 173.570312 C 528.890625 173.546875 530.117188 173.828125 531.265625 174.425781 C 532.320312 174.980469 533.144531 175.773438 533.742188 176.800781 C 534.355469 177.863281 534.652344 179.007812 534.632812 180.234375 C 534.621094 181.289062 534.347656 182.277344 533.8125 183.1875 C 533.332031 184.09375 532.648438 184.804688 531.761719 185.324219 C 532.730469 185.824219 533.492188 186.539062 534.050781 187.476562 C 534.667969 188.441406 534.976562 189.5 534.972656 190.652344 C 534.996094 191.914062 534.695312 193.089844 534.070312 194.1875 C 533.457031 195.238281 532.617188 196.046875 531.539062 196.613281 C 530.367188 197.21875 529.121094 197.507812 527.800781 197.484375 Z M 526.808594 183.648438 C 527.386719 183.660156 527.933594 183.535156 528.449219 183.273438 C 528.917969 183.035156 529.28125 182.6875 529.542969 182.230469 C 529.804688 181.746094 529.929688 181.230469 529.917969 180.675781 C 529.964844 179.839844 529.691406 179.121094 529.097656 178.523438 C 528.441406 177.949219 527.679688 177.6875 526.808594 177.738281 L 522.847656 177.738281 L 522.847656 183.648438 Z M 527.152344 193.316406 C 527.722656 193.324219 528.269531 193.210938 528.792969 192.972656 C 529.265625 192.757812 529.628906 192.421875 529.882812 191.964844 C 530.148438 191.46875 530.273438 190.941406 530.257812 190.378906 C 530.304688 189.539062 530.03125 188.824219 529.441406 188.226562 C 528.785156 187.648438 528.023438 187.386719 527.152344 187.441406 L 522.847656 187.441406 L 522.847656 193.316406 Z M 527.152344 193.316406 " fill-opacity="1" fill-rule="nonzero"/></svg>