<svg id="Layer_1" data-name="Layer 1" xmlns="http://www.w3.org/2000/svg" viewBox="0 0 720 265.3982"><defs><style>.cls-1,.cls-3{fill:none;stroke-miterlimit:10;}.cls-1{stroke:#fc5822;stroke-width:5px;}.cls-2{fill:#fc5822;}.cls-3{stroke:#000;stroke-width:4.4906px;}</style></defs><path class="cls-1" d="M303.1464,211.9369H392.298a64.3675,64.3675,0,0,1,7.9526,0c4.1232.3181,19.5369,1.7347,32.3681,13.872a46.6111,46.6111,0,0,1,13.872,23.12c4.8428,20.2894-6.8062,36.6461-9.248,40.0747A54.8883,54.8883,0,0,1,417.6,305.9649a53.02,53.02,0,0,1-8.1017,3.0762,46.0012,46.0012,0,0,1-9.248,1.5413c-41.2565,2.831-61.4831.1012-61.4832.1012q-.2436-.05-.316.04-1.5651,1.9273,76.5852,68.5838" transform="translate(0 -194.2434)"/><path class="cls-2" d="M49.89,459.6416a11.4785,11.4785,0,0,1-6.5981-1.8857,12.0044,12.0044,0,0,1-4.2842-5.377,22.9539,22.9539,0,0,1,0-16.3232,12.017,12.017,0,0,1,4.2842-5.378A11.493,11.493,0,0,1,49.89,428.793a10.3243,10.3243,0,0,1,7.3907,2.57,14.6761,14.6761,0,0,1,3.92,7.1123H55.2031a6.857,6.857,0,0,0-2.0136-3.127,4.9593,4.9593,0,0,0-3.2994-1.1142,5.0419,5.0419,0,0,0-3.4062,1.1992,7.1825,7.1825,0,0,0-2.0776,3.4277,21.2633,21.2633,0,0,0,0,10.7119A7.1645,7.1645,0,0,0,46.4839,453a5.0327,5.0327,0,0,0,3.4062,1.2,4.9588,4.9588,0,0,0,3.2994-1.1143,6.8435,6.8435,0,0,0,2.0136-3.1279h5.9981a14.6725,14.6725,0,0,1-3.92,7.1123A10.3248,10.3248,0,0,1,49.89,459.6416Z" transform="translate(0 -194.2434)"/><path class="cls-2" d="M70.6274,459.2129l9.2544-29.9912h7.2408l9.34,29.9912h-6.17l-6.6836-23.65H83.395l-6.855,23.65ZM76.4541,453.3l2.0137-5.2695H88.751L90.7646,453.3Z" transform="translate(0 -194.2434)"/><path class="cls-2" d="M108.0313,459.2129V429.2217h11.8681a9.58,9.58,0,0,1,4.6055,1.0713,7.8016,7.8016,0,0,1,3.1064,2.9775,8.38,8.38,0,0,1,1.1138,4.3057,7.4574,7.4574,0,0,1-1.0283,3.706,6.7441,6.7441,0,0,1-2.57,2.6778,7.2057,7.2057,0,0,1,2.8706,2.6992,7.3575,7.3575,0,0,1,1.1567,3.9844,8.65,8.65,0,0,1-1.1352,4.4345,7.9312,7.9312,0,0,1-3.1709,3.042,9.7661,9.7661,0,0,1-4.6914,1.0928ZM118.9136,441.86a4.3613,4.3613,0,0,0,2.0566-.4708,3.28,3.28,0,0,0,1.3711-1.3066,3.9062,3.9062,0,0,0,.4712-1.95,3.5653,3.5653,0,0,0-1.0283-2.6992,3.9831,3.9831,0,0,0-2.8706-.9854h-4.97V441.86Zm.4287,12.125a4.7358,4.7358,0,0,0,2.0566-.4278,3.0219,3.0219,0,0,0,1.3711-1.2646,3.992,3.992,0,0,0,.4712-1.9922,3.5653,3.5653,0,0,0-1.0283-2.6992,3.9839,3.9839,0,0,0-2.8706-.9854h-5.3985v7.3692Z" transform="translate(0 -194.2434)"/><path class="cls-2" d="M142.1777,459.2129V429.2217h10.54a10.1453,10.1453,0,0,1,5.227,1.3066,9.0026,9.0026,0,0,1,3.4278,3.5127,10.11,10.11,0,0,1,1.2,4.9063,9.6536,9.6536,0,0,1-1.2,4.7988,8.5433,8.5433,0,0,1-3.4278,3.3633,10.7158,10.7158,0,0,1-5.227,1.2207H148.09v10.8828ZM152.332,443.36a4.6281,4.6281,0,0,0,2.3135-.5567,3.82,3.82,0,0,0,1.521-1.5644,4.7141,4.7141,0,0,0,.5356-2.2491,4.5593,4.5593,0,0,0-1.1782-3.2353,4.1561,4.1561,0,0,0-3.1919-1.2637H148.09V443.36Zm4.7559,15.8525-6.6411-12.4248h6.084l6.9838,12.4248Z" transform="translate(0 -194.2434)"/><path class="cls-2" d="M176.1108,459.2129V429.2217h6.0411v29.9912Z" transform="translate(0 -194.2434)"/><path class="cls-2" d="M196.4619,459.2129V429.2217h6.1694v24.55h11.6539v5.4414Z" transform="translate(0 -194.2434)"/><path class="cls-2" d="M226.2393,459.2129V429.2217h6.1694v24.55h11.6538v5.4414Z" transform="translate(0 -194.2434)"/><path class="cls-2" d="M265.3994,459.6416a11.4783,11.4783,0,0,1-6.5981-1.8857,12.0037,12.0037,0,0,1-4.2842-5.377,22.9539,22.9539,0,0,1,0-16.3232,12.0164,12.0164,0,0,1,4.2842-5.378,12.53,12.53,0,0,1,13.2177,0,11.7213,11.7213,0,0,1,4.2632,5.3565,23.7144,23.7144,0,0,1,0,16.3662,11.7138,11.7138,0,0,1-4.2632,5.3555A11.5822,11.5822,0,0,1,265.3994,459.6416Zm0-5.4414a5.0346,5.0346,0,0,0,3.4063-1.2,7.3132,7.3132,0,0,0,2.1-3.4268,20.6549,20.6549,0,0,0,0-10.7119,7.332,7.332,0,0,0-2.1-3.4277,5.4372,5.4372,0,0,0-6.8125,0,7.1827,7.1827,0,0,0-2.0777,3.4277,21.2663,21.2663,0,0,0,0,10.7119A7.1646,7.1646,0,0,0,261.9932,453,5.0325,5.0325,0,0,0,265.3994,454.2Z" transform="translate(0 -194.2434)"/><path class="cls-2" d="M307.3438,459.2129V429.2217h10.54a10.1459,10.1459,0,0,1,5.2271,1.3066,9.003,9.003,0,0,1,3.4277,3.5127,10.11,10.11,0,0,1,1.2,4.9063,9.6536,9.6536,0,0,1-1.2,4.7988,8.5437,8.5437,0,0,1-3.4277,3.3633,10.7165,10.7165,0,0,1-5.2271,1.2207h-4.627v10.8828ZM317.498,443.36a4.6281,4.6281,0,0,0,2.3135-.5567,3.82,3.82,0,0,0,1.521-1.5644,4.713,4.713,0,0,0,.5357-2.2491,4.5593,4.5593,0,0,0-1.1783-3.2353,4.1561,4.1561,0,0,0-3.1919-1.2637h-4.2417V443.36Zm4.7559,15.8525-6.6411-12.4248h6.084l6.9839,12.4248Z" transform="translate(0 -194.2434)"/><path class="cls-2" d="M352.1592,459.6416a11.4789,11.4789,0,0,1-6.5982-1.8857,12.0042,12.0042,0,0,1-4.2841-5.377,22.9539,22.9539,0,0,1,0-16.3232,12.0168,12.0168,0,0,1,4.2841-5.378,12.53,12.53,0,0,1,13.2178,0,11.7213,11.7213,0,0,1,4.2632,5.3565,23.7083,23.7083,0,0,1,0,16.3662,11.7138,11.7138,0,0,1-4.2632,5.3555A11.5822,11.5822,0,0,1,352.1592,459.6416Zm0-5.4414a5.0343,5.0343,0,0,0,3.4062-1.2,7.3116,7.3116,0,0,0,2.1-3.4268,20.6521,20.6521,0,0,0,0-10.7119,7.33,7.33,0,0,0-2.1-3.4277,5.4372,5.4372,0,0,0-6.8125,0,7.1825,7.1825,0,0,0-2.0776,3.4277,21.2633,21.2633,0,0,0,0,10.7119A7.1645,7.1645,0,0,0,348.7529,453,5.0329,5.0329,0,0,0,352.1592,454.2Z" transform="translate(0 -194.2434)"/><path class="cls-2" d="M377.3516,459.2129V429.2217H389.22a9.5785,9.5785,0,0,1,4.6055,1.0713,7.8016,7.8016,0,0,1,3.1064,2.9775,8.3807,8.3807,0,0,1,1.1143,4.3057,7.4574,7.4574,0,0,1-1.0283,3.706,6.7462,6.7462,0,0,1-2.5713,2.6778,7.2037,7.2037,0,0,1,2.8711,2.6992,7.3527,7.3527,0,0,1,1.1562,3.9844,8.6546,8.6546,0,0,1-1.1347,4.4345,7.9337,7.9337,0,0,1-3.1709,3.042,9.7647,9.7647,0,0,1-4.6914,1.0928ZM388.2344,441.86a4.367,4.367,0,0,0,2.0566-.4708,3.2884,3.2884,0,0,0,1.3711-1.3066,3.9113,3.9113,0,0,0,.4707-1.95,3.5653,3.5653,0,0,0-1.0283-2.6992,3.9826,3.9826,0,0,0-2.87-.9854h-4.9707V441.86Zm.4277,12.125a4.7335,4.7335,0,0,0,2.0567-.4278,3.0147,3.0147,0,0,0,1.371-1.2646,3.9869,3.9869,0,0,0,.4717-1.9922,3.5649,3.5649,0,0,0-1.0283-2.6992,3.9834,3.9834,0,0,0-2.8711-.9854h-5.3984v7.3692Z" transform="translate(0 -194.2434)"/><path class="cls-2" d="M422.5947,459.6416a11.4758,11.4758,0,0,1-6.5976-1.8857,12.0089,12.0089,0,0,1-4.2852-5.377,22.9682,22.9682,0,0,1,0-16.3232,12.0215,12.0215,0,0,1,4.2852-5.378,12.528,12.528,0,0,1,13.2168,0,11.7182,11.7182,0,0,1,4.2636,5.3565,23.7068,23.7068,0,0,1,0,16.3662,11.7107,11.7107,0,0,1-4.2636,5.3555A11.5809,11.5809,0,0,1,422.5947,459.6416Zm0-5.4414a5.0337,5.0337,0,0,0,3.4063-1.2,7.3132,7.3132,0,0,0,2.1-3.4268,20.6408,20.6408,0,0,0,0-10.7119,7.332,7.332,0,0,0-2.1-3.4277,5.4372,5.4372,0,0,0-6.8125,0,7.1831,7.1831,0,0,0-2.0781,3.4277,21.2633,21.2633,0,0,0,0,10.7119A7.1651,7.1651,0,0,0,419.1885,453,5.0318,5.0318,0,0,0,422.5947,454.2Z" transform="translate(0 -194.2434)"/><path class="cls-2" d="M451.9014,459.2129v-24.55h-7.9268v-5.4414h21.8936v5.4414H458.07v24.55Z" transform="translate(0 -194.2434)"/><path class="cls-2" d="M478.0352,459.2129V429.2217h6.041v29.9912Z" transform="translate(0 -194.2434)"/><path class="cls-2" d="M509.4844,459.6416a11.4761,11.4761,0,0,1-6.5977-1.8857,12.0094,12.0094,0,0,1-4.2851-5.377,22.9668,22.9668,0,0,1,0-16.3232,12.022,12.022,0,0,1,4.2851-5.378,11.4906,11.4906,0,0,1,6.5977-1.8847,10.3241,10.3241,0,0,1,7.3906,2.57,14.688,14.688,0,0,1,3.9209,7.1123h-5.999a6.8459,6.8459,0,0,0-2.0137-3.127,4.9575,4.9575,0,0,0-3.2988-1.1142,5.0412,5.0412,0,0,0-3.4063,1.1992A7.1831,7.1831,0,0,0,504,438.8613a21.2663,21.2663,0,0,0,0,10.7119A7.1651,7.1651,0,0,0,506.0781,453a5.032,5.032,0,0,0,3.4063,1.2,4.957,4.957,0,0,0,3.2988-1.1143,6.8325,6.8325,0,0,0,2.0137-3.1279h5.999a14.6843,14.6843,0,0,1-3.9209,7.1123A10.3246,10.3246,0,0,1,509.4844,459.6416Z" transform="translate(0 -194.2434)"/><path class="cls-2" d="M541.875,459.6416a12.7717,12.7717,0,0,1-5.3555-1.0928,9.1745,9.1745,0,0,1-3.8349-3.1709,9.875,9.875,0,0,1-1.6494-4.9912h6.1269a4.1078,4.1078,0,0,0,1.4141,2.8926,4.9379,4.9379,0,0,0,3.2988,1.0488,5.6927,5.6927,0,0,0,2.5273-.4707,3.1349,3.1349,0,0,0,1.3926-1.2851,3.7487,3.7487,0,0,0,.45-1.8428,2.61,2.61,0,0,0-.707-1.8633,5.3467,5.3467,0,0,0-1.8-1.2217q-1.0914-.47-2.9776-1.1132a29.6072,29.6072,0,0,1-4.456-1.7569,8.587,8.587,0,0,1-3.042-2.6777,7.9165,7.9165,0,0,1-1.2852-4.7344,8.0573,8.0573,0,0,1,1.3282-4.6494,8.2193,8.2193,0,0,1,3.5781-2.9346,12.2062,12.2062,0,0,1,4.9482-.9853,11.8,11.8,0,0,1,5.4844,1.1572,8.276,8.276,0,0,1,3.3848,3.084,9.6817,9.6817,0,0,1,1.3281,4.3711h-6.127a3.7389,3.7389,0,0,0-1.2636-2.3994,3.9671,3.9671,0,0,0-2.6778-.9,4.8972,4.8972,0,0,0-2.0781.4072,2.772,2.772,0,0,0-1.3066,1.1787,3.3753,3.3753,0,0,0-.4287,1.6709,2.8629,2.8629,0,0,0,.707,2.0137,5.3314,5.3314,0,0,0,1.8418,1.2636q1.1352.4938,3.0635,1.1358a36.2547,36.2547,0,0,1,4.4775,1.82,7.9753,7.9753,0,0,1,2.9561,2.6348,7.7113,7.7113,0,0,1,1.2216,4.499,8.2148,8.2148,0,0,1-4.9921,7.8193A13.1684,13.1684,0,0,1,541.875,459.6416Z" transform="translate(0 -194.2434)"/><path class="cls-2" d="M592.8164,459.6416a11.4756,11.4756,0,0,1-6.5976-1.8857,12.0089,12.0089,0,0,1-4.2852-5.377,22.9682,22.9682,0,0,1,0-16.3232,12.0215,12.0215,0,0,1,4.2852-5.378,11.49,11.49,0,0,1,6.5976-1.8847,10.3239,10.3239,0,0,1,7.3906,2.57,14.688,14.688,0,0,1,3.9209,7.1123h-5.999a6.8443,6.8443,0,0,0-2.0137-3.127,4.9575,4.9575,0,0,0-3.2988-1.1142,5.0408,5.0408,0,0,0-3.4062,1.1992,7.1833,7.1833,0,0,0-2.0782,3.4277,21.2663,21.2663,0,0,0,0,10.7119A7.1652,7.1652,0,0,0,589.41,453a5.0316,5.0316,0,0,0,3.4062,1.2,4.957,4.957,0,0,0,3.2988-1.1143,6.8309,6.8309,0,0,0,2.0137-3.1279h5.999a14.6843,14.6843,0,0,1-3.9209,7.1123A10.3244,10.3244,0,0,1,592.8164,459.6416Z" transform="translate(0 -194.2434)"/><path class="cls-2" d="M616.51,459.2129V429.2217h6.17v24.55H634.333v5.4414Z" transform="translate(0 -194.2434)"/><path class="cls-2" d="M656.1426,459.6416a11.3711,11.3711,0,0,1-6.02-1.5,9.6819,9.6819,0,0,1-3.791-4.4346,17.9511,17.9511,0,0,1-1.3282-7.3906V429.2217h6.169v17.0947a14.3079,14.3079,0,0,0,.6,4.5635,5.1819,5.1819,0,0,0,1.65,2.5273,4.3872,4.3872,0,0,0,2.7207.793,4.2665,4.2665,0,0,0,2.6133-.793,5.1124,5.1124,0,0,0,1.6709-2.5273,14.3079,14.3079,0,0,0,.6-4.5635V429.2217h6.2129v17.0947a17.71,17.71,0,0,1-1.35,7.3906,9.7768,9.7768,0,0,1-3.8349,4.4346A11.2276,11.2276,0,0,1,656.1426,459.6416Z" transform="translate(0 -194.2434)"/><path class="cls-2" d="M681.0342,459.2129V429.2217h11.8681a9.5785,9.5785,0,0,1,4.6055,1.0713,7.8025,7.8025,0,0,1,3.1065,2.9775,8.3816,8.3816,0,0,1,1.1142,4.3057,7.4574,7.4574,0,0,1-1.0283,3.706,6.7462,6.7462,0,0,1-2.5713,2.6778A7.2037,7.2037,0,0,1,701,446.6592a7.3528,7.3528,0,0,1,1.1563,3.9844,8.6546,8.6546,0,0,1-1.1348,4.4345,7.9337,7.9337,0,0,1-3.1709,3.042,9.7647,9.7647,0,0,1-4.6914,1.0928ZM691.917,441.86a4.367,4.367,0,0,0,2.0566-.4708,3.2884,3.2884,0,0,0,1.3711-1.3066,3.9113,3.9113,0,0,0,.4707-1.95,3.5649,3.5649,0,0,0-1.0283-2.6992,3.9825,3.9825,0,0,0-2.87-.9854h-4.9707V441.86Zm.4277,12.125a4.7332,4.7332,0,0,0,2.0567-.4278,3.015,3.015,0,0,0,1.3711-1.2646,3.9879,3.9879,0,0,0,.4716-1.9922,3.5649,3.5649,0,0,0-1.0283-2.6992,3.9834,3.9834,0,0,0-2.8711-.9854h-5.3984v7.3692Z" transform="translate(0 -194.2434)"/><circle class="cls-2" cx="426.6679" cy="156.8595" r="7.7384"/><path class="cls-3" d="M417.976,377.6306" transform="translate(0 -194.2434)"/><text y="-194.2434"/><circle class="cls-2" cx="426.5457" cy="133.6897" r="7.7384"/><circle class="cls-1" cx="426.3822" cy="191.1317" r="12.4643"/><path class="cls-2" d="M299.2931,365.6136V243.9313a23.8881,23.8881,0,1,0-26.2027-1.0086V365.1448a23.8754,23.8754,0,1,0,26.2027.4688ZM286.977,210.62a12.4643,12.4643,0,1,1-12.4642,12.4643A12.4643,12.4643,0,0,1,286.977,210.62Zm-.5861,187.2193a12.4643,12.4643,0,1,1,12.4642-12.4643A12.4643,12.4643,0,0,1,286.3909,397.8394Z" transform="translate(0 -194.2434)"/><rect class="cls-2" x="458.4271" y="294.5773" width="96.1847" height="27.2447" transform="translate(814.7192 -392.5632) rotate(90)"/><polygon class="cls-2" points="720 179.415 683.931 210.141 601.105 210.141 601.105 174.072 662.556 174.072 662.556 155.369 720 155.369 720 179.415"/><polygon class="cls-2" points="720 48.497 683.931 17.772 601.105 17.772 601.105 53.841 662.556 53.841 662.556 72.543 720 72.543 720 48.497"/><rect class="cls-2" x="602.5699" y="208.1363" width="36.0693" height="43.8266" transform="translate(850.6541 -584.7984) rotate(90)"/><rect class="cls-2" x="602.5699" y="364.4365" width="36.0693" height="43.8266" transform="translate(1006.9543 -428.4982) rotate(90)"/><path class="cls-2" d="M514.2716,212.0149v192.37h85.4975v-192.37Zm37.405,168.3233A12.0231,12.0231,0,1,1,563.7,368.3151,12.023,12.023,0,0,1,551.6766,380.3382Zm0-120.2309A12.0231,12.0231,0,1,1,563.7,248.0842,12.023,12.023,0,0,1,551.6766,260.1073Z" transform="translate(0 -194.2434)"/><text y="-194.2434"/><rect class="cls-2" x="105.2767" width="33.3798" height="39.4739"/><path class="cls-2" d="M216.1523,238.97l-25.7457,23.922,25.7457-23.922c-14.4979-11.8234-32.7457-20.6673-53.1855-25.35v33.1147a78.4669,78.4669,0,0,1,27.8442,17.6733l26.4019-24.5316C216.8553,239.577,216.5146,239.265,216.1523,238.97Z" transform="translate(0 -194.2434)"/><path class="cls-2" d="M122.14,368.0626c-43.155,0-78.139-28.7187-78.139-64.1451,0-23.867,15.8907-44.674,39.4488-55.7214V213.6284C34.9961,226.3965,0,262.9284,0,306.0321c0,53.7235,54.3441,97.2751,121.381,97.2751,34.441,0,65.507-11.5146,87.5991-29.979l-26.9087-25.0026L208.98,373.3282c.5669-.4738,1.1043-.97,1.6592-1.4525l-28.71-26.6763C167.5956,359.1747,146.1363,368.0626,122.14,368.0626Z" transform="translate(0 -194.2434)"/></svg>