<svg id="Layer_1" data-name="Layer 1" xmlns="http://www.w3.org/2000/svg" viewBox="0 0 663.8414 258.7515"><defs><style>.cls-1{fill:none;}.cls-1,.cls-2,.cls-3,.cls-4{stroke:#000;stroke-miterlimit:10;stroke-width:6.263px;}.cls-2{fill:#bad7ed;}.cls-3{fill:#fff;}.cls-4{fill:#d7e8f4;}</style></defs><path class="cls-1" d="M301.9478,205.8127H383.37a58.78,58.78,0,0,1,7.2632,0c3.7656.29,17.8431,1.5842,29.5618,12.6693a42.5705,42.5705,0,0,1,12.6694,21.1157c4.4229,18.53-6.2162,33.469-8.4462,36.6a50.1308,50.1308,0,0,1-17.94,15.4907,48.44,48.44,0,0,1-7.3993,2.8095,42.0286,42.0286,0,0,1-8.4462,1.4077c-37.68,2.5855-56.1528.0924-56.1529.0924q-.2224-.0453-.2886.0362-1.4293,1.76,69.9456,62.6379" transform="translate(-21.9516 -173.3696)"/><path d="M59.812,419.0488c0-8.46,5.5928-13.3662,12.0366-13.3662a10.7568,10.7568,0,0,1,7.669,3.31L76.4785,412.69a6.4077,6.4077,0,0,0-4.501-2.0293c-3.4965,0-6.2578,3.083-6.2578,8.1953,0,5.2422,2.439,8.2881,6.166,8.2881A6.72,6.72,0,0,0,76.874,424.76l3.0391,3.6191a10.4957,10.4957,0,0,1-8.2349,3.7422C65.2114,432.1211,59.812,427.6377,59.812,419.0488Z" transform="translate(-21.9516 -173.3696)"/><path d="M96.3623,406.1523h6.898l8.0078,25.4991H105.167l-3.3359-12.9141c-.7085-2.55-1.39-5.5644-2.0708-8.2246H99.604c-.6167,2.6924-1.2978,5.6748-2.0063,8.2246l-3.35,12.9141H88.354Zm-2.7285,14.9444h12.269v4.48H93.6338Z" transform="translate(-21.9516 -173.3696)"/><path d="M121.5518,406.1523h8.728c5.293,0,9.4038,1.4541,9.4038,6.3243,0,2.2871-1.2793,4.7226-3.36,5.5048v.1563A5.8116,5.8116,0,0,1,140.94,424.14c0,5.1875-4.3867,7.5118-9.9331,7.5118h-9.455Zm8.4609,10.2129c2.7974,0,4.0347-1.1826,4.0347-3.0371,0-1.9638-1.3062-2.7275-3.9932-2.7275h-2.7373v5.7646Zm.5249,10.8379c3.1426,0,4.7661-1.1181,4.7661-3.4365,0-2.2363-1.5962-3.1465-4.7661-3.1465h-3.2207v6.583Z" transform="translate(-21.9516 -173.3696)"/><path d="M153.0518,406.1523h9.1836c5.4082,0,9.8413,1.878,9.8413,7.94,0,5.8593-4.4331,8.3818-9.8413,8.3818h-3.4185v9.1768h-5.7651Zm8.7138,11.7461c3.0327,0,4.6616-1.2978,4.6616-3.8056,0-2.5215-1.6289-3.3633-4.6616-3.3633h-2.9487v7.1689Zm-.5844,3.0567,3.9868-3.6885,8.1382,14.3848H166.855Z" transform="translate(-21.9516 -173.3696)"/><path d="M184.8647,406.1523H190.63v25.4991h-5.7652Z" transform="translate(-21.9516 -173.3696)"/><path d="M204.4688,406.1523h5.7651v20.6641h10.0649v4.835h-15.83Z" transform="translate(-21.9516 -173.3696)"/><path d="M232.564,406.1523h5.7651v20.6641H248.394v4.835h-15.83Z" transform="translate(-21.9516 -173.3696)"/><path d="M258.0449,418.791c0-8.331,4.7041-13.1084,11.5811-13.1084s11.581,4.81,11.581,13.1084c0,8.3311-4.7041,13.33-11.581,13.33S258.0449,427.1221,258.0449,418.791Zm17.2544,0c0-5.1123-2.1948-8.1308-5.6733-8.1308s-5.6734,3.0185-5.6734,8.1308,2.1949,8.3526,5.6734,8.3526S275.2993,423.9033,275.2993,418.791Z" transform="translate(-21.9516 -173.3696)"/><path d="M309.4937,406.1523h9.1835c5.4082,0,9.8414,1.878,9.8414,7.94,0,5.8593-4.4332,8.3818-9.8414,8.3818h-3.4184v9.1768h-5.7651Zm8.7138,11.7461c3.0327,0,4.6616-1.2978,4.6616-3.8056,0-2.5215-1.6289-3.3633-4.6616-3.3633h-2.9487v7.1689Zm-.5849,3.0567,3.9873-3.6885,8.1381,14.3848h-6.4511Z" transform="translate(-21.9516 -173.3696)"/><path d="M340.1011,418.791c0-8.331,4.7041-13.1084,11.581-13.1084s11.5816,4.81,11.5816,13.1084c0,8.3311-4.7046,13.33-11.5816,13.33S340.1011,427.1221,340.1011,418.791Zm17.2544,0c0-5.1123-2.1949-8.1308-5.6734-8.1308s-5.6733,3.0185-5.6733,8.1308,2.1948,8.3526,5.6733,8.3526S357.3555,423.9033,357.3555,418.791Z" transform="translate(-21.9516 -173.3696)"/><path d="M375.8975,406.1523h8.7285c5.2929,0,9.4033,1.4541,9.4033,6.3243,0,2.2871-1.2793,4.7226-3.3594,5.5048v.1563a5.812,5.812,0,0,1,4.6162,6.0019c0,5.1875-4.3867,7.5118-9.9326,7.5118h-9.456Zm8.4619,10.2129c2.7969,0,4.0342-1.1826,4.0342-3.0371,0-1.9638-1.3067-2.7275-3.9932-2.7275h-2.7373v5.7646Zm.5244,10.8379c3.1426,0,4.7666-1.1181,4.7666-3.4365,0-2.2363-1.5967-3.1465-4.7666-3.1465h-3.2207v6.583Z" transform="translate(-21.9516 -173.3696)"/><path d="M406.1914,418.791c0-8.331,4.7041-13.1084,11.5811-13.1084s11.582,4.81,11.582,13.1084c0,8.3311-4.7051,13.33-11.582,13.33S406.1914,427.1221,406.1914,418.791Zm17.2549,0c0-5.1123-2.1943-8.1308-5.6738-8.1308S412.1,413.6787,412.1,418.791s2.1943,8.3526,5.6729,8.3526S423.4463,423.9033,423.4463,418.791Z" transform="translate(-21.9516 -173.3696)"/><path d="M445.8818,410.9873h-7.0185v-4.835H458.665v4.835h-7.0185v20.6641h-5.7647Z" transform="translate(-21.9516 -173.3696)"/><path d="M470.4756,406.1523H476.24v25.4991h-5.7646Z" transform="translate(-21.9516 -173.3696)"/><path d="M488.874,419.0488c0-8.46,5.5938-13.3662,12.0371-13.3662a10.7559,10.7559,0,0,1,7.669,3.31L505.541,412.69a6.4077,6.4077,0,0,0-4.501-2.0293c-3.497,0-6.2578,3.083-6.2578,8.1953,0,5.2422,2.4385,8.2881,6.166,8.2881a6.72,6.72,0,0,0,4.9883-2.3838l3.0391,3.6191a10.4954,10.4954,0,0,1-8.2344,3.7422C494.2744,432.1211,488.874,427.6377,488.874,419.0488Z" transform="translate(-21.9516 -173.3696)"/><path d="M517.9365,428.4346l3.3106-3.9561a10.15,10.15,0,0,0,6.2636,2.6651c2.4063,0,3.584-.9473,3.584-2.461,0-1.6055-1.4492-2.1211-3.6767-3.0371l-3.3145-1.4121c-2.6416-1.0752-5.1455-3.2461-5.1455-6.9512,0-4.2256,3.7744-7.6,9.082-7.6a11.7892,11.7892,0,0,1,8.2032,3.3418l-2.91,3.6328a8.3063,8.3063,0,0,0-5.293-1.997c-1.9873,0-3.2529.8281-3.2529,2.2861,0,1.5644,1.668,2.1328,3.8936,3.0185l3.25,1.3165c3.1132,1.2587,5.0576,3.332,5.0576,6.9365,0,4.2343-3.53,7.9033-9.6065,7.9033A14.0451,14.0451,0,0,1,517.9365,428.4346Z" transform="translate(-21.9516 -173.3696)"/><path d="M563.6123,419.0488c0-8.46,5.5938-13.3662,12.0371-13.3662a10.7559,10.7559,0,0,1,7.669,3.31l-3.0391,3.6973a6.4077,6.4077,0,0,0-4.501-2.0293c-3.497,0-6.2578,3.083-6.2578,8.1953,0,5.2422,2.4385,8.2881,6.166,8.2881a6.72,6.72,0,0,0,4.9883-2.3838l3.0391,3.6191a10.4954,10.4954,0,0,1-8.2344,3.7422C569.0127,432.1211,563.6123,427.6377,563.6123,419.0488Z" transform="translate(-21.9516 -173.3696)"/><path d="M595.418,406.1523h5.7646v20.6641H611.248v4.835h-15.83Z" transform="translate(-21.9516 -173.3696)"/><path d="M621.9229,419.835V406.1523h5.7646v14.2725c0,4.9932,1.5732,6.7188,4.4268,6.7188,2.8671,0,4.5185-1.7256,4.5185-6.7188V406.1523H642.19V419.835c0,8.5615-3.4795,12.2861-10.0761,12.2861S621.9229,428.3965,621.9229,419.835Z" transform="translate(-21.9516 -173.3696)"/><path d="M655.9131,406.1523h8.7275c5.294,0,9.4043,1.4541,9.4043,6.3243,0,2.2871-1.2793,4.7226-3.3594,5.5048v.1563a5.8121,5.8121,0,0,1,4.6163,6.0019c0,5.1875-4.3877,7.5118-9.9336,7.5118h-9.4551Zm8.4609,10.2129c2.7969,0,4.0352-1.1826,4.0352-3.0371,0-1.9638-1.3067-2.7275-3.9932-2.7275h-2.7383v5.7646Zm.5244,10.8379c3.1426,0,4.7666-1.1181,4.7666-3.4365,0-2.2363-1.5957-3.1465-4.7666-3.1465h-3.2207v6.583Z" transform="translate(-21.9516 -173.3696)"/><circle cx="392.8087" cy="159.5439" r="7.0675"/><path class="cls-2" d="M298.4285,346.1662V235.0332a21.817,21.817,0,1,0-23.931-.9211V345.738a21.8055,21.8055,0,1,0,23.931.4282Z" transform="translate(-21.9516 -173.3696)"/><path class="cls-1" d="M406.822,357.1413" transform="translate(-21.9516 -173.3696)"/><text x="-21.9516" y="-173.3696"/><circle cx="392.6971" cy="138.3828" r="7.0675"/><circle class="cls-3" cx="392.5478" cy="190.8447" r="11.3837"/><circle class="cls-3" cx="265.2286" cy="42.624" r="11.3837"/><circle class="cls-3" cx="264.1117" cy="191.0386" r="11.3837"/><rect class="cls-2" x="445.9658" y="254.6872" width="175.6917" height="78.0852" transform="translate(805.5898 -413.4515) rotate(90)"/><rect class="cls-2" x="441.0855" y="283.9691" width="87.8458" height="19.5213" transform="translate(756.7865 -364.6482) rotate(90)"/><circle class="cls-4" cx="506.9797" cy="65.4565" r="10.9807"/><polygon class="cls-2" points="660.71 60.576 627.768 32.514 552.123 32.514 552.123 65.456 608.246 65.456 608.246 82.538 660.71 82.538 660.71 60.576"/><rect class="cls-4" x="576.5145" y="203.4438" width="32.9422" height="37.8225" transform="translate(793.389 -544.0002) rotate(90)"/><polygon class="cls-2" points="660.71 180.144 627.768 208.206 552.123 208.206 552.123 175.264 608.246 175.264 608.246 158.183 660.71 158.183 660.71 180.144"/><rect class="cls-4" x="576.5145" y="346.1933" width="32.9422" height="37.8225" transform="translate(936.1385 -401.2507) rotate(90)"/><circle class="cls-4" cx="506.9797" cy="175.2638" r="10.9807"/><text x="-21.9516" y="-173.3696"/><rect class="cls-2" x="99.281" y="16.2835" width="30.4859" height="36.0517"/><path class="cls-2" d="M222.4958,230.5016,198.9821,252.35l23.5137-21.8481c-13.241-10.7983-29.9068-18.8755-48.5746-23.152v30.2438a71.6636,71.6636,0,0,1,25.43,16.1411l24.113-22.4049C223.1378,231.0565,222.8267,230.7715,222.4958,230.5016Z" transform="translate(-21.9516 -173.3696)"/><path class="cls-2" d="M136.6336,348.4028c-39.4136,0-71.3646-26.2289-71.3646-58.584,0-21.7977,14.513-40.8009,36.0287-50.89V207.3575C57.0452,219.0187,25.0831,252.3834,25.0831,291.75c0,49.0658,49.6326,88.8416,110.8577,88.8416,31.4551,0,59.8277-10.5163,80.0046-27.38L191.37,330.377l24.5758,22.8349c.5177-.4327,1.0085-.8857,1.5153-1.3266L191.24,327.5218C178.1487,340.2855,158.55,348.4028,136.6336,348.4028Z" transform="translate(-21.9516 -173.3696)"/></svg>